<?xml version="1.0" encoding="utf-8"?>
<!-- Generator: Adobe Illustrator 18.1.0, SVG Export Plug-In . SVG Version: 6.00 Build 0)  -->
<!DOCTYPE svg PUBLIC "-//W3C//DTD SVG 1.1//EN" "http://www.w3.org/Graphics/SVG/1.1/DTD/svg11.dtd">
<svg version="1.1" id="Layer_1" xmlns="http://www.w3.org/2000/svg" xmlns:xlink="http://www.w3.org/1999/xlink" x="0px" y="0px"
	 viewBox="281.8 232.3 236.4 139.4" enable-background="new 281.8 232.3 236.4 139.4" xml:space="preserve">
<path fill="#B3B3B3" d="M437.1,279.2c0-11.1-9-20.1-20.1-20.1c-4.4,0-8.5,1.5-11.8,3.9c2.9-4.2,4.6-9.4,4.6-15
	c0-5.7-3.9-13.9-12-15.7c0,0-5,0-9.6,2.3c0,0,0,0,0,0.1c-7.8,3.4-13.7,10.1-16.1,18.4c-5.8-3.1-12.4-4.9-19.4-4.9
	c-17.1,0-31.7,10.4-38,25.2c-2.1-0.5-4.2-0.8-6.5-0.8c-14.6,0-26.4,11.8-26.4,26.4s11.8,26.4,26.4,26.4c0.3,0,0.6,0,0.9,0
	c2.3,15,15.2,26.5,30.8,26.5c7.5,0,14.4-2.7,19.8-7.1l0.1-0.3c7.1,7.2,17,11.7,27.9,11.7c21.6,0,39.2-17.5,39.2-39.2
	c0-6.7-1.7-12.9-4.6-18.4C430.8,296.4,437.1,288.6,437.1,279.2z"/>
<path fill="#999999" d="M492.4,273c-0.3-22.5-18.6-40.7-41.2-40.7c-11.1,0-21.2,4.4-28.6,11.6c-3.5-4.7-8.4-8.2-14.1-10.1l0,0
	c0,0-0.4-0.2-1.2-0.4c-0.1,0-0.2-0.1-0.3-0.1c-0.5-0.1-1.1-0.3-1.7-0.4c-0.3-0.1-0.5-0.1-0.8-0.2l0,0c-1.8-0.3-4-0.5-6.4-0.4
	c8.1,1.8,11.9,10,11.9,15.7c0,5.6-1.7,10.8-4.6,15c3.3-2.4,7.4-3.9,11.8-3.9c11.1,0,20.1,9,20.1,20.1c0,6.6-3.2,12.4-8.1,16
	c-28.5-33.9-63-10.4-63-10.4c34.4-15.9,53,9.2,57.1,15.7c2.3,5,3.6,10.6,3.6,16.5c0,21.6-17.5,39.2-39.2,39.2
	c-9.8,0-18.8-3.6-25.7-9.6c-0.8-0.5-1.6-1.1-2.3-1.8c0,0,14.1,23.7,44.7,26.6c1.8,0.2,3.7,0.3,5.5,0.3c19.6,0,37-9.3,48-23.8
	c5.7,3,12.2,4.7,19,4.7c22.8,0,41.3-18.5,41.3-41.3C518.3,294,507.6,279.2,492.4,273z"/>
</svg>
