<?xml version="1.0" encoding="utf-8"?>
<!-- Generator: Adobe Illustrator 18.1.0, SVG Export Plug-In . SVG Version: 6.00 Build 0)  -->
<!DOCTYPE svg PUBLIC "-//W3C//DTD SVG 1.1//EN" "http://www.w3.org/Graphics/SVG/1.1/DTD/svg11.dtd">
<svg version="1.1" id="Layer_1" xmlns="http://www.w3.org/2000/svg" xmlns:xlink="http://www.w3.org/1999/xlink" x="0px" y="0px"
	 viewBox="0 0 134 150.5" enable-background="new 0 0 134 150.5" xml:space="preserve">
<path fill="#C7A66B" d="M67.3,135.2c12.4-1.5,23.4-13.7,35.5-16.9c2.4-0.6,4.8-1.1,7-2.1c2.3-1.1,4.3-2.8,6.6-3.9
	c5.8-2.9,13.9-2.4,17.2-7.9c0.1-0.2,0-0.4-0.2-0.5c-9.7-3.9-19.3-7.8-29-11.7c-7.1-2.9-12.6-9.1-20.1-10.7c-2.9-0.6-5.8-0.5-8.7-0.9
	c-2.9-0.4-6.7-1.6-8.3-4c-4.9,2.8-8.4,5.2-13.7,7.1c-4.1,1.5-10.2,1-13.8,3.5c-9.6,6.4-21.7,8.4-31,15.2c-2.7,2-5.5,4.5-8.9,4.4
	c7.2,3,14.3,6.4,21.5,9.4c2.4,1,4.9,2,7.5,2.5c1.8,0.3,3.7,0.4,5.5,0.6C46,120.7,55.8,134.7,67.3,135.2
	C67,135.1,67.4,140.4,67.3,135.2z"/>
<path opacity="0.67" fill="#5FC6D7" d="M67.3,62.8c0,0-0.7-0.1-2.5-0.4c-2.6-0.4-4.8-1.2-7.1-2.7c-2.7-1.8-5.3-4.1-8.4-5.1
	c-3.1-1.1-6.6-0.9-9.8-2c-5-1.7-8.4-6.3-13.2-8.6c-3-1.4-6.3-1.9-9.4-2.9c-3.3-1.1-6.3-2.8-9.2-4.7c-2.3-1.6-4.6-3.9-7.2-5l0.5,0
	C6.6,32.3,11.2,28,16.3,26c2.2-0.9,4.6-1.3,6.6-2.5c2.5-1.4,4.3-3.7,6.7-5.3c5.3-3.5,12.5-3,17.5-6.9c1.5-1.2,2.8-2.7,4.5-3.3
	c1.6-0.5,3.3-0.2,4.8-0.6c1-0.3,1.9-1,2.8-1.6C62,3.9,64.6,1.9,67.2,0c-1.3,1,10.3,5.9,11,6.1c3.2,1.1,4.1,2.6,6.6,4.7
	c2.5,2,5.6,3.3,8.6,4.2c4.6,1.4,9.5,2.1,13.8,4.4c3.7,2,6.9,5,10.9,6.3c1.9,0.6,3.9,0.9,5.8,1.3c3.2,0.8,6.2,2.4,9.2,4
	c0.2,0.1,0.4,0.2,0.6,0.3l0.4,0.3c-2.6,1-4.9,3.4-7.2,5c-2.9,1.9-5.9,3.6-9.2,4.7c-3.1,1-6.5,1.5-9.4,2.9c-4.7,2.3-8.2,6.9-13.2,8.6
	c-3.1,1.1-6.6,0.9-9.8,2c-3.1,1.1-5.6,3.3-8.4,5.1c-2.3,1.5-4.4,2.3-7.1,2.7C68.1,62.7,67.4,62.8,67.3,62.8L67.3,62.8z"/>
<defs>
	<filter id="Adobe_OpacityMaskFilter" filterUnits="userSpaceOnUse" x="0.6" y="31.5" width="66.7" height="119">
		<feColorMatrix  type="matrix" values="1 0 0 0 0  0 1 0 0 0  0 0 1 0 0  0 0 0 1 0"/>
	</filter>
</defs>
<mask maskUnits="userSpaceOnUse" x="0.6" y="31.5" width="66.7" height="119" id="SVGID_1_">
	<g filter="url(#Adobe_OpacityMaskFilter)">
		<linearGradient id="SVGID_2_" gradientUnits="userSpaceOnUse" x1="43.5935" y1="26.5393" x2="22.8372" y2="144.2543">
			<stop  offset="0" style="stop-color:#FFFFFF"/>
			<stop  offset="0.3687" style="stop-color:#FFFFFF"/>
			<stop  offset="0.7999" style="stop-color:#000000"/>
		</linearGradient>
		<polygon fill="url(#SVGID_2_)" points="70.3,152.6 -3.9,119 -3.9,18.2 70.3,54 		"/>
	</g>
</mask>
<path opacity="0.67" mask="url(#SVGID_1_)" fill="#5FC6D7" d="M0.7,31.5c0.2,12.3,0,24.6,0,37c0,16,0,31.9,0,47.9
	c0,0.2-0.2,2.7,0,2.8c0,0,66.7,31.3,66.7,31.3c0-13.2,0-26.5,0-39.7c0-9.8,0-19.5,0-29.3c0-3.7,0-7.4,0-11.1c0-1.7,0-7.4,0-7.4
	s-0.7-0.1-2.5-0.4c-2.6-0.4-4.8-1.2-7.1-2.7c-2.7-1.8-5.3-4.1-8.4-5.1c-3.1-1.1-6.6-0.9-9.8-2c-5-1.7-8.4-6.3-13.2-8.6
	c-3-1.4-6.3-1.9-9.4-2.9c-3.3-1.1-6.3-2.8-9.2-4.7C5.5,34.9,3.3,32.5,0.7,31.5z"/>
<defs>
	<filter id="Adobe_OpacityMaskFilter_1_" filterUnits="userSpaceOnUse" x="67.1" y="31.5" width="66.7" height="119">
		<feColorMatrix  type="matrix" values="1 0 0 0 0  0 1 0 0 0  0 0 1 0 0  0 0 0 1 0"/>
	</filter>
</defs>
<mask maskUnits="userSpaceOnUse" x="67.1" y="31.5" width="66.7" height="119" id="SVGID_3_">
	<g filter="url(#Adobe_OpacityMaskFilter_1_)">
		
			<linearGradient id="SVGID_4_" gradientUnits="userSpaceOnUse" x1="547.4689" y1="26.5393" x2="526.7126" y2="144.2543" gradientTransform="matrix(-1 0 0 1 638.3267 0)">
			<stop  offset="0" style="stop-color:#FFFFFF"/>
			<stop  offset="0.3687" style="stop-color:#FFFFFF"/>
			<stop  offset="0.7999" style="stop-color:#000000"/>
		</linearGradient>
		<polygon fill="url(#SVGID_4_)" points="64.1,152.6 138.3,119 138.3,18.2 64.1,54 		"/>
	</g>
</mask>
<path opacity="0.67" mask="url(#SVGID_3_)" fill="#5FC6D7" d="M133.8,31.5c-0.2,12.3,0,24.6,0,37c0,16,0,31.9,0,47.9
	c0,0.2,0.2,2.7,0,2.8c0,0-66.7,31.3-66.7,31.3c0-13.2,0-26.5,0-39.7c0-9.8,0-19.5,0-29.3c0-3.7,0-7.4,0-11.1c0-1.7,0-7.4,0-7.4
	s0.7-0.1,2.5-0.4c2.6-0.4,4.8-1.2,7.1-2.7c2.7-1.8,5.3-4.1,8.4-5.1c3.1-1.1,6.6-0.9,9.8-2c5-1.7,8.4-6.3,13.2-8.6
	c3-1.4,6.3-1.9,9.4-2.9c3.3-1.1,6.3-2.8,9.2-4.7C128.9,34.9,131.2,32.5,133.8,31.5z"/>
<path opacity="0.27" fill="#5FC6D7" d="M100.5,64.8c0,0,33.2-20.8,33.2,36.5l0.1-44.1c0-8.6-0.1-17.1,0-25.7l-1,0.5
	c-2.2,1.2-4.2,3.1-6.2,4.5c-2.9,1.9-5.9,3.6-9.2,4.7c-3.1,1-6.5,1.5-9.4,2.9c-4.7,2.3-8.2,6.9-13.2,8.6c-3.1,1.1-6.6,0.9-9.8,2
	c-3.1,1.1-5.6,3.3-8.4,5.1c-2.3,1.5-4.4,2.3-7.1,2.7c-1.8,0.3-2.5,0.4-2.5,0.4s0,5.7,0,7.4c0,3.7,0,7.4,0,11.1c0,9.8,0,19.5,0,29.3
	c0,6.7,0,13.5,0,20.2C67.1,130.9,76.7,74.9,100.5,64.8z"/>
<path opacity="0.27" fill="#5FC6D7" d="M33.9,64.8c0,0-33.2-20.8-33.2,36.5L0.7,57.2c0-8.6,0.1-17.1,0-25.7l1,0.5
	c2.2,1.2,4.2,3.1,6.2,4.5c2.9,1.9,5.9,3.6,9.2,4.7c3.1,1,6.5,1.5,9.4,2.9c4.7,2.3,8.2,6.9,13.2,8.6c3.1,1.1,6.6,0.9,9.8,2
	c3.1,1.1,5.6,3.3,8.4,5.1c2.3,1.5,4.4,2.3,7.1,2.7c1.8,0.3,2.5,0.4,2.5,0.4s0,5.7,0,7.4c0,3.7,0,7.4,0,11.1c0,9.8,0,19.5,0,29.3
	c0,6.7,0,13.5,0,20.2C67.3,130.9,57.8,74.9,33.9,64.8z"/>
<path fill="#5FC6D7" d="M26.4,21.9c0-0.1,0-0.2,0-0.3c-0.7,0.6-1.5,1.1-2.3,1.4c0,0,0,0,0,0c0,0,0,0,0,0c-0.1,0.1-0.2,0.1-0.3,0.1
	c-0.3,0.2-0.6,0.4-1,0.5c-0.1,0.1-0.2,0.1-0.3,0.2c-0.2,0.1-0.4,0.1-0.6,0.2c-0.2,0.1-0.4,0.1-0.5,0.1c-0.6,0.3-1.2,0.6-1.8,0.9
	c0,0,0,0,0,0c-0.6,0.1-1.2,0.3-1.7,0.5c-0.3,0.1-0.5,0.2-0.8,0.3c-0.3,0.1-0.5,0.2-0.8,0.3c-1.5,0.6-3,1.2-4.5,2
	c-0.5,0.3-0.8,0.6-1,0.9c-2.5,1-4.9,1.9-7.5,2.3c0.6,0.9,1.7,1.6,3.1,1.4c1.8-0.3,3.4-0.2,4.9,0c0.8,0.8,1.9,1.2,3.1,0.7
	c2.3,0.7,4.5,1.6,7,2.3c2.7,0.8,6.3,1.6,8.9,0.2C37.4,32.3,26.5,25.9,26.4,21.9z"/>
<path fill="#5FC6D7" d="M65.6,53.2c-3.7-3.5-5.7-6.2-11.1-7c-2.7-0.4-5.3-0.1-8.1-0.1c-3.2,0.1-6,0-8.7-1.1c0.1,0.2,0.2,0.3,0.3,0.5
	c2.6,2.9,5.6,3.2,9.3,3.5c2.4,0.2,4.9,0.2,7.2,1.1c3,1.1,4.4,3.2,6.9,4.8c2.8,1.8,7.1,2.5,10.5,1.5C69.5,55.9,67.2,54.7,65.6,53.2z"
	/>
<path fill="#5FC6D7" d="M74.8,14.7c-1.3-2.1-2.5-3.9-4.9-4.8c-0.6-0.2-1.2-0.3-1.8-0.5c0,0-0.1,0-0.1-0.1c-1.7-0.4-3-2.2-3-3.9
	c0-0.3,0.1-0.6,0.1-0.9c0-0.2,0-0.4,0-0.6c0-0.2,0.1-0.3,0.1-0.5c0-0.2,0.1-0.4,0.2-0.5c0.1-0.5,0.4-1,0.7-1.5
	c0.1-0.2,0.3-0.4,0.4-0.6c-1.3,0.9-2.7,1.7-4,2.5c-0.2,0.1-0.4,0.3-0.6,0.4c-0.8,0.9-1.8,1.7-3,2c0,0.1,0,0.1,0,0.2c0,0-0.1,0-0.1,0
	c-0.1,0-0.3,0-0.4-0.1c-1,0.3-2.1,0.6-3.1,0.8c-0.5,0.1-1.8,0.3-3,0.6c-0.2,0.1-0.5,0.2-0.7,0.3c-0.3,0.2-0.6,0.4-0.9,0.6
	c4.4-0.7,8.9,2.4,13.3,2.7c3,0.3,6.1,0.3,8.4,2.5c0.3,0.2,0.5,0.5,0.7,0.8c0.6,0.8,1.2,1.6,1.9,2.6c0.7,1,1.1,1.9,2.2,2.6
	c0.6,0.4,1.1,0.7,1.7,0.9C77.2,18.8,76,16.6,74.8,14.7z"/>
<path opacity="0.63" fill="#22AECC" d="M68.8,135.2c0-0.1,0.1-0.2,0.1-0.3c0.1,0,0.2,0,0.3,0c0.3-0.3,0.6-0.5,1.1-0.6
	c0.6-0.2,1.1-0.4,1.6-0.6c1.5-0.7,3.1-1.4,4.7-1.8c0,0,0,0,0,0c5.2-2.2,10.1-5,14.8-8.2c0.1-0.1,0.1-0.2,0.2-0.2
	c-2.1,1.4-4.4,2.1-6.8,2.2c-1.8,0.9-3.7,1.4-5.7,1.4c-2.6,0.5-5.5,0-6.9-2.5c-0.9-1.7-1.2-3.7-1.5-5.6c-0.6-4.2-0.8-8.4-0.9-12.6
	c-0.4-4-0.5-8.1-0.6-11.8c-0.5-10.5-0.8-20.9-2.2-31.3c-0.1,0.1-0.1,0.3-0.1,0.5v71c0,0.7,0.5,1,1,0.9
	C68.1,135.6,68.4,135.4,68.8,135.2C68.7,135.3,68.7,135.3,68.8,135.2z"/>
<path fill="#5FC6D7" d="M133.8,31.9c-0.3-0.2-0.6-0.2-1,0c-3.5,2.2-6.8,5-10.4,7c-3.8,2.1-8.1,2.5-12.1,4.3c-0.1,0-0.2,0.1-0.2,0.2
	c-2.3,0.8-4.4,1.9-6.4,3.4c-4.9,3.6-8.2,5.9-14.3,6.9c-3.4,0.6-6.1,1.5-9.1,3.3c-2.6,1.7-5.1,3.6-7.8,4.8c0,0.1,0,0.2,0,0.4
	c3.7-1.1,7.1-2.9,10.9-4.5c4.8-1.9,9.7-2.9,14.3-5.2c1-0.5,2-1,3-1.6c4.1-3.7,9.1-7.1,14.5-7.7c0-0.2-0.1-0.3-0.1-0.5
	c5.1-0.2,10.4,1,14,3.9c2,1.7,3.4,4.2,4.4,6.9C132.9,46.4,132.9,38.9,133.8,31.9z"/>
<path fill="#B5824C" d="M0.8,119.1V107c6.9,2.9,13.8,6.2,20.7,9.1c2.4,1,4.9,2,7.5,2.5c1.8,0.3,3.7,0.4,5.5,0.6
	c11.4,1.6,21.3,15.6,32.8,16.1v15.2L0.8,119.1z"/>
<path fill="#976742" d="M133.6,119.1v-14.8c-3.3,5.6-11.4,5.1-17.2,7.9c-2.3,1.1-4.3,2.8-6.6,3.9c-2.2,1-4.6,1.5-7,2.1
	c-12.1,3.2-23,15.4-35.5,16.9v15.2L133.6,119.1z"/>
<path opacity="0.65" fill="#5C352B" d="M133.5,104.5c-2.6,4-7.7,4.7-12.6,6.1c-1.2,0.4-2.3,0.7-3.5,1.1c-0.4,0.1-0.7,0.3-1.1,0.5
	c-2.3,1.1-4.3,2.8-6.6,3.9c-2.2,1-4.6,1.5-7,2.1c-3,0.8-5.9,2.1-8.7,3.7c0,0,0,0,0,0c-0.1,0.1-0.2,0.1-0.3,0.2c-1.8,1-3.5,2-5.2,3.1
	c0,0.1,0,0.1,0,0.2c3.8-3.1,9.5-4.4,14.9-4.8c1.8-0.4,3.6-0.6,5.4-0.4c2.3,0.1,4,0.4,6.2-0.4c4.1-1.4,8.8-2.5,11.1,2.5
	c0,0.1,0.1,0.2,0.2,0.2l7.4-3.5v-14.6C133.6,104.5,133.5,104.5,133.5,104.5z"/>
<path opacity="0.38" fill="#5C352B" d="M89.4,139.6c-1.1,0.5-2.3,0.9-3.4,1.4c-0.2,0-0.3,0-0.5,0c-3.1,1.1-6.6,2.3-9.8,0.8
	c-0.6-0.3-1.2-0.7-1.8-1.2c-1.6-1.4-2.7-3.4-3.7-5.3c-0.1-0.3-0.4-0.4-0.6-0.5c0-0.1-0.1-0.1-0.1-0.2c-0.6,0.1-1.2,0.2-1.8,0.3
	c0,0.1-0.1,0.2-0.1,0.2c-0.2,2.5-0.2,4.9-0.1,7.3c0,0.1,0,0.1,0,0.2c-0.1,0.8-0.1,1.6-0.2,2.4c0,0-0.1,0.1-0.1,0.1v5l22.9-10.8
	C90,139.5,89.7,139.5,89.4,139.6z"/>
<path opacity="0.52" fill="#5C352B" d="M93.8,125.1c-0.4-0.1-0.8,0-1.1,0.4c-0.2,0.3-0.2,0.5-0.3,0.9c-0.1,0.6,0.7,1.2,1.3,1
	c0.6-0.2,1-0.6,1-1.3C94.6,125.5,94.2,125.2,93.8,125.1z"/>
<path opacity="0.52" fill="#5C352B" d="M100.3,122.7C100.3,122.7,100.3,122.7,100.3,122.7c-0.4-0.2-0.8-0.2-1.1,0c0,0,0,0-0.1,0
	c-0.5,0.3-0.6,0.8-0.4,1.2c0.1,0.4,0.4,0.8,0.9,0.8c0,0,0.1,0,0.1,0c0.5,0,0.8-0.3,1-0.7c0,0,0-0.1,0-0.1
	C100.9,123.4,100.6,122.9,100.3,122.7z"/>
<path opacity="0.52" fill="#5C352B" d="M105,123.2c-1.3,0-1.3,2,0,2C106.3,125.2,106.3,123.2,105,123.2z"/>
<path opacity="0.52" fill="#5C352B" d="M101.3,127.2c-1.3,0-1.3,2,0,2C102.6,129.2,102.6,127.2,101.3,127.2z"/>
<path opacity="0.52" fill="#5C352B" d="M96.4,132L96.4,132c0,0.7,1,0.7,1,0.1V132C97.4,131.3,96.4,131.3,96.4,132z"/>
<path opacity="0.52" fill="#5C352B" d="M108.8,126.7c-1.3,0-1.3,2,0,2C110.1,128.7,110.1,126.7,108.8,126.7z"/>
<path opacity="0.52" fill="#5C352B" d="M115.6,124c0,0-0.1,0.1-0.1,0.1c-0.9,0.9,0.5,2.3,1.4,1.4l0.1-0.1
	C117.9,124.5,116.5,123,115.6,124z"/>
<path opacity="0.52" fill="#5C352B" d="M111.5,122.3c-1.3,0-1.3,2,0,2C112.8,124.3,112.8,122.3,111.5,122.3z"/>
<path opacity="0.52" fill="#5C352B" d="M121.2,120.3c-1.3,0-1.3,2,0,2C122.5,122.3,122.5,120.3,121.2,120.3z"/>
<path opacity="0.52" fill="#5C352B" d="M88.5,129.5h-0.1c-1.3,0-1.3,2,0,2h0.1C89.8,131.5,89.8,129.5,88.5,129.5z"/>
<path opacity="0.52" fill="#5C352B" d="M79,132.8c-1.3,0-1.3,2,0,2C80.3,134.8,80.3,132.8,79,132.8z"/>
<path opacity="0.52" fill="#5C352B" d="M73.3,135.7L73.3,135.7c0,0.6,0.8,0.6,0.8,0v0C74.1,135.2,73.3,135.2,73.3,135.7z"/>
<path opacity="0.52" fill="#5C352B" d="M92,135.3C92,135.3,91.9,135.3,92,135.3c-0.7,0.7,0.3,1.7,0.9,1.1l0.1-0.1
	C93.6,135.6,92.6,134.6,92,135.3z"/>
<path opacity="0.52" fill="#5C352B" d="M84.6,137.2c-0.9,0-0.9,1.4,0,1.4C85.5,138.5,85.5,137.2,84.6,137.2z"/>
<path fill="#5FC6D7" d="M77.4,39.9c4.7,3.2,9.9,4.9,15.5,4.8c-3.3-1.2-6.3-3.4-9.5-5.8c-9.9-7.7-18.4-14-31.3-11.2
	c0.8,0,1.5,0.1,2.3,0.1C64.5,26,70.8,33.1,77.4,39.9z"/>
<path fill="#5FC6D7" d="M107.9,30.5c3.5,3.5,8.1,4,12.5,2.8c-2.2,0-4.2-0.5-6.1-1.4c-1.5-0.4-3-1.2-4.3-2.5
	c-0.5-0.5-0.9-0.9-1.4-1.4c-2.3-2-4.5-4-7.2-5.2c-2.2-0.7-4.5-0.7-6.7,0.1c2.5,0.5,4.9,1.5,7.1,3.2c1.3,1,2.9,2.3,4.6,3.7
	C106.9,29.7,107.5,30,107.9,30.5z"/>
</svg>
