<?xml version="1.0" encoding="utf-8"?>
<!-- Generator: Adobe Illustrator 18.1.0, SVG Export Plug-In . SVG Version: 6.00 Build 0)  -->
<!DOCTYPE svg PUBLIC "-//W3C//DTD SVG 1.1//EN" "http://www.w3.org/Graphics/SVG/1.1/DTD/svg11.dtd">
<svg version="1.1" id="Layer_1" xmlns="http://www.w3.org/2000/svg" xmlns:xlink="http://www.w3.org/1999/xlink" x="0px" y="0px"
	 viewBox="0 0 147.2 149.2" enable-background="new 0 0 147.2 149.2" xml:space="preserve">
<g>
	<path fill="#784A3B" d="M0.2,72.8c0.2-1.1,0.8-2.1,1.5-3.3c2.9-5.6,5.7-11.4,7.5-17.4c2-6.7,1.7-13.9,6.1-19.8
		c1.7-2.2,3.7-4.4,6.4-5.1c2.8-0.8,6.5-0.2,9.5-0.3c3.4-0.1,6.9-0.2,10.3-0.3c3.9-0.1,7.8-0.2,11.7-0.4c0.8,0,2.9-5.1,3.3-5.7
		c2.2-3,4.5-5.9,6.5-8.9c2.1-3.2,4.9-6.2,8.5-7.2c4.3-1.2,8.9,0.7,13.4,0.4c2.2-0.2,4.4-0.9,6.5-1.3c3.8-0.7,7.1,0.3,9.4,3.3
		c1.6,2,3.6,3.6,5.8,4.7c1.5,0.7,3.1,1.2,4.6,1.9c4.8,2.3,9.2,6.5,13.4,9.6c1.2,0.9,3.8,2.1,4.6,3.4c0,0,17.8,29.1,17.8,29.1
		l-17.8,27.9l5.8,20.1l-17.7,16l-4.2,15c0,0-35.4,14.9-35.4,14.9c-3.9,0-7.9,0-11.8,0c-3.9,0-7.8,0-11.7,0c-2.7,0-5.9-0.1-7.3-2.9
		c-0.3-0.6-0.4-1.2-0.9-1.6c-1.1-1.1-2.9-0.4-4.4-0.6c-1.6-0.2-2.9-1.5-3.2-3.1c-0.1-0.6,0-1.3-0.4-1.8c-0.6-0.8-1.8-0.7-2.7-0.6
		c-2,0.3-4,0.7-5.9,1c-1.5,0.2-3.1,0.4-4.3-0.4c-0.8-0.6-1.2-1.5-1.6-2.4c-5.3-11.5-12.4-22.4-18.7-33.5c-1-1.7-0.8-5.3-1.1-7.3
		c-1-6.5-2-12.9-3-19.4c-0.1-0.9-0.4-1.9-0.5-2.9C0.2,73.4,0.2,73.1,0.2,72.8z"/>
	<path fill="#5C352B" d="M129.3,27.1c-0.7-0.1-1.2,0.9-2.4,1.8c-0.9,0.7-1.3,1.8-1.3,2.9c0,0.6,0.2,1.2-0.1,1.7
		c-0.3,0.8-1.3,1-1.9,1.6c-0.4,0.5-0.5,1.2-0.8,1.8c-0.2,0.4-0.5,0.8-0.9,1.1c-1.8,1.6-4.3,2.2-6.6,1.7c-2.4-0.4-3.9-0.1-6.3,0.5
		c-3.1,0.7-6.2,1.4-9.3,2.2c-4-2-10.8-7.7-15.4-5.2c-2.7,1.5-5.4,5.9-5.9,8.9c-0.4,2,2.2,3.4,2.4,5.5c0.1,1.4-1,2.8-0.4,4.1
		c0.5,1.3,2.4,1.8,3.4,2.8c1.4,1.3,1.6,2.1,3.5,2.4c2.9,0.4,6.1,0,8.9,0c4.6,0,9.1,0,13.7,0c1.1,0,3.1,1.7,4,2.2c2,1.1,4,2,6.3,1
		c1.3-0.6,2.5-1.4,3.9-1.9c2.2-0.7,4.6-0.3,6.9,0.2c0.6,0.1,1.4,0.5,1.3,1.1c-0.1,0.3-0.4,0.6-0.6,0.8c-1.4,0.9-2.7,1.9-4.1,2.8
		c0.7,0.3,1.3,0.9,1.7,1.5c-1.2,0.6-2.3,1.1-3.5,1.7c-0.3,0.1-0.6,0.3-0.7,0.6c-0.1,0.3-0.1,0.6,0,0.9c0.9,4.2,2.3,7.7,4.1,11.7
		c0,0,17.8-27.9,17.8-27.9c-2.9-4.7-5.8-9.4-8.6-14.1c-2-3.3-4.1-6.7-6.1-10c-0.6-1-1.2-2.5-2.1-3.4
		C129.9,27.4,129.6,27.2,129.3,27.1z"/>
	<path fill="#5C352B" d="M117.4,119.3c0,0-18.1-14.9-18.1-15c0.6,0.5,0,5.4,0,6.3c0.1,1.7-0.2,5.8,1.8,6.5c0.7,0.2,1.5,0,2.3,0.1
		c1.4,0.2,2.4,1.8,2,3.1c-0.2,0.6-0.6,1.2-0.7,1.8c-0.1,1.1,0.9,2.2,0.3,3.1c-0.6,0.9-1.9,0.6-3,0.6c-3.6,0-5.6,5-9.2,5.4
		c-1.2,0.1-2.5-0.3-3.7-0.3c-2.8,0.1-5,2.3-7.7,3.3c-2.6,0.9-5.5,0.5-8.1,1.3c-2.7,0.9-5,3.7-7.2,5.5c-3.5,2.7-6.9,5.4-10.4,8.1
		h22.1l35.4-14.9L117.4,119.3z"/>
	<path fill="#5C352B" d="M99.3,104.4c6-0.7,11.2-1.3,16.7-4c1.5-0.7,2.9-1.5,4.1-2.5c2.4-2.1,3.7-5.9,5.4-8.6c1.3-2,2.5-4,3.8-6.1
		l5.8,20.1l-17.7,16C117.4,119.3,99.3,104.4,99.3,104.4z"/>
	<path fill="#5C352B" d="M0,72.8c5.3,2,14.1,3.3,16.7,9c0.7,1.5,1.1,3.6,2.7,4c0.3,0.1,0.6,0.1,0.9,0.1c1.4,0.2,2.6,1.3,3.6,2.4
		c3.4,3.5,5.6,8.8,8.2,13l19,9.7l17.9-4.3l14.5-7.8l-8,20.6c0,0-25.6,7.5-25.6,7.5c-1.8-1.4-3.6-2.9-5.4-4.3c-1.8-1.4-4-2.8-5.6-4.5
		c-1-1.1-1.6-2.5-3.2-3.1c-1.2-0.4-2.4-0.4-3.6-0.5c-4-0.5-7.6-2.6-11-4.7c-0.6-0.4-1.2-0.8-1.7-1.4c-0.4-0.6-0.7-1.2-1.1-1.8
		c-1.5-2.5-4.6-3.1-7.2-3c-0.7,0-6.6,0.4-6.6-0.1C4.8,103.3,0,72.8,0,72.8z"/>
	<path fill="#8CC63F" d="M104.7,8.1c-2.9-4.2-7.9-6.9-13-7c-1.3,0-2.5,0.1-3.7-0.2c-0.8-0.2-1.6-0.6-2.5-0.8
		C82-0.7,78.8,2.3,75.4,2.6c-3.5,0.3-6-0.1-8.8,2.7c-2.7,2.7-4.2,6.3-6.2,9.4c-3,4.8-9.6,8.5-14.6,10.7c-3.9,1.7-8.7,1.2-12.6-0.3
		c-7.3-2.8-16.4,0.5-20.3,7.3c-3,5.3-2.9,11.7-4.6,17.5C6,57.7,2.7,65.2,0,72.8c0.5-1.3,2.1-2.4,2.9-3.5C4.5,67,5.5,64,6.7,61.5
		c0.3-0.5,0.6-1.1,1.1-1.4c0.5-0.2,1-0.1,1.5-0.1c1.4-0.1,2.5-1.3,3.2-2.6c0.7-1.3,1-2.7,1.8-3.9c1-1.4,2.5-2.5,3.2-4
		c0.5-1,0.6-2.1,0.9-3.2c1.2-3.8,5.1-6.4,9.1-6.1c1.9,0.2,3.7,0.9,5.7,1c4.7,0.3,8.6-3.4,12.2-6.5c1.2-1,2.4-1.9,3.9-2.2
		c2.7-0.4,5,1.7,6.9,3.6c-0.2-1.6,1.8-2.3,3.4-2.4c1.6,0,3.5,0,4.2-1.4c0.4-0.7,0.3-1.4,0.5-2.2c0.6-2.9,4.1-4.2,6-6.6
		c2.1-2.8,1.7-6.7,2.4-10.2c0.1-0.5,0.2-1,0.6-1.3c0.9-0.9,2.4-0.4,3.5,0.2c1.7,0.9,3.4,1.9,4.5,3.5c2-1.2,4.3-1.8,6.6-1.7
		c1.2,0.1,2.5,0.3,3.7,0.1c1.6-0.3,2.9-1.5,4.4-1.9c3.6-0.9,7.6,2.6,11,3.4c3.4,0.8,6.8,1.2,10.2,1.7
		C117.4,17.5,110.6,12.4,104.7,8.1z"/>
	<path fill="#5C352B" d="M36.7,131.2c-1.8-0.4-3.6-0.2-5.4-0.7c-2.2-0.6-3.9-2.4-5.6-3.9c-3.1-2.7-6.6-4.9-10.3-6.4
		c2.7,5.3,5.4,10.6,8,15.9c0.8,1.6,1.9,3.4,3.7,3.7c0.7,0.1,1.4,0,2-0.1c3.2-0.5,6.4-1.1,9.6-1.6c-0.4,2.1,0,4.9,2.1,5.5
		c1.3,0.4,2.6-0.2,3.7-0.9c1.8-1.2,3.6-3.3,2.8-5.3C43.2,136.6,40.7,132.3,36.7,131.2z"/>
</g>
</svg>
