<?xml version="1.0" encoding="utf-8"?>
<!-- Generator: Adobe Illustrator 18.1.0, SVG Export Plug-In . SVG Version: 6.00 Build 0)  -->
<!DOCTYPE svg PUBLIC "-//W3C//DTD SVG 1.1//EN" "http://www.w3.org/Graphics/SVG/1.1/DTD/svg11.dtd">
<svg version="1.1" id="Layer_1" xmlns="http://www.w3.org/2000/svg" xmlns:xlink="http://www.w3.org/1999/xlink" x="0px" y="0px"
	 viewBox="0 0 139.8 116.5" enable-background="new 0 0 139.8 116.5" xml:space="preserve">
<g opacity="0.67">
	<path fill="#55C3D5" d="M0,66.4c0,0.1,0,0.2,0,0.2C0,74.3,4,81.1,10,85C4,80.9,0.1,74.1,0,66.4z"/>
	<path fill="#55C3D5" d="M123.3,58.9c3.2-4.6,5.1-10.1,5.1-16.2c0-15.6-12.6-28.2-28.2-28.2c-7,0-13.4,2.6-18.4,6.8
		C76.1,8.8,63.4,0,48.7,0c-4.5,0-8.8,0.8-12.8,2.3c2-0.4,4-0.6,6-0.6c16.6,0,30.1,13.2,30.6,29.7c3.3-6.6,10.1-11.1,18-11.1
		c11.2,0,20.2,9,20.2,20.2c0,9.1-6,16.8-14.3,19.3c-9.7-15.1-32.5-11.4-32.5-11.4C88.7,49.8,90.5,71,90.5,71
		c0,16.9-13.7,30.5-30.5,30.5c-11.4,0-21.2-6.2-26.5-15.4c-0.1,0-0.1,0.1-0.2,0.1c2.9,17.2,17.8,30.2,35.8,30.2
		c14.7,0,27.4-8.8,33.1-21.3c4,4.2,9.6,6.7,15.8,6.7c12.1,0,21.8-9.8,21.8-21.8C139.8,69.8,132.8,61.3,123.3,58.9z"/>
</g>
<path opacity="0.67" fill="#95D3D8" d="M90.5,20.3c-7.9,0-14.7,4.5-18,11.1C72,14.9,58.5,1.7,41.9,1.7C25,1.7,11.3,15.4,11.3,32.3
	c0,4.6,1,8.9,2.8,12.8C5.8,48.5,0,56.6,0,66.1c0,12.6,10.2,22.7,22.7,22.7c3.9,0,7.5-1,10.7-2.7c5.3,9.2,15.2,15.4,26.5,15.4
	c16.9,0,30.5-13.7,30.5-30.5c0,0-1.8-21.2-26.7-22.6c0,0,22.9-3.7,32.5,11.4c8.3-2.5,14.3-10.2,14.3-19.3
	C110.7,29.3,101.7,20.3,90.5,20.3z"/>
<path fill="#55C3D5" d="M104.7,76.9C104.7,76.9,104.6,76.9,104.7,76.9c1.2,8.2-2.4,18.2-2.4,18.2c9.4,8.2,17.5,7.7,23.8,5.2
	c10.6-4.1,12.9-14.2,12.9-14.2c-5,6.4-14.6,6.4-19.3,4.9C111.9,88.4,107.2,81.8,104.7,76.9z"/>
<path fill="#FFFFFF" d="M32.7,76.9c-0.3-0.2,2.1-21.6,23.8-27.1c0,0-12,5.8-18.5,17.8L32.7,76.9z"/>
<path fill="#FFFFFF" d="M21,12.8c0,0-7.8,9-5.3,24.2c1.1,6.9,5.8,13.4,17,17.3C32.7,54.3,12.1,40.3,21,12.8z"/>
</svg>
