<?xml version="1.0" encoding="utf-8"?>
<!-- Generator: Adobe Illustrator 18.1.0, SVG Export Plug-In . SVG Version: 6.00 Build 0)  -->
<!DOCTYPE svg PUBLIC "-//W3C//DTD SVG 1.1//EN" "http://www.w3.org/Graphics/SVG/1.1/DTD/svg11.dtd">
<svg version="1.1" id="Layer_1" xmlns="http://www.w3.org/2000/svg" xmlns:xlink="http://www.w3.org/1999/xlink" x="0px" y="0px"
	 viewBox="0 0 137.2 183.9" enable-background="new 0 0 137.2 183.9" xml:space="preserve">
<g>
	<path fill="#9ADAF7" d="M0,94.5V54.7C0,54.7,42.7,5,88.5,0c0,0-14.9,18.9-14.9,25.8c0,0,34.8-20.9,48.7-12.9c0,0-6,19.9,0,26.8
		c0,0,11.9,2,14.9,18.9c0,0-9.9,8.9-10.9,19.9c0,0,13.9,0-6,22.9S70.6,151.1,75.5,173l-7,10.9H53.7c0,0-31.2-23.7-31.5-40.7
		C22.2,143.2,26.8,114.5,0,94.5z"/>
	<path fill="#58C9F4" d="M0,54.7c0,0,32.3-31.3,58.6-37.3L44.2,36h7c0,0-18.4,30.6-16.9,50.4c0,0,7-38.8,39.3-60.6
		c0,0,5.5-16.9,14.9-25.8C88.5,0,50.7,0,0,54.7z"/>
	<path fill="#58C9F4" d="M122.3,39.8c0,0-44.7-1-61.6,35.3c0,0,7.5-24.4,30.8-35.3c0,0,20.3-9.3,29.3-20.3
		C120.7,19.5,118.3,32.8,122.3,39.8z"/>
	<path fill="#58C9F4" d="M137.2,58.6c0,0-14.9-6-22.9-4.5l3,4.5c0,0-20.4,0-28.8,8.9c0,0,9.9,8.4,5,18.9c0,0-20.4,17.9-21.4,38.8
		c0,0,25.3-36.8,35.8-41.3c0,0-1.5-3.5,1.5-8.9c0,0,12.4-2.8,16.9,3.5L137.2,58.6z"/>
	<path fill="#58C9F4" d="M0,94.5c0,0,21.4,12.8,22.4,46.6c0,0-2,15.9,31.3,42.8c0,0-10.9-16.9-9.4-34.8c0,0-6-0.5-10-0.5
		c0,0,0.5-25.8-7.4-39.3C26.8,109.3,5.5,99.5,0,94.5z"/>
	<path fill="#FFFFFF" d="M122.3,12.9c0,0-16.6-2.2-34.4,14.9c0,0-33,20.6-34.2,50.7c0,0,6.5,1.7,7,13.4c0,0-4.4-24.2,13.7-39.6
		c0,0,11.4-12,18.8-13.4C93.2,38.9,99.2,18.6,122.3,12.9z"/>
	<path fill="#FFFFFF" d="M9.2,100.5c0,0,12.2,6.6,17.7,8.9c0,0,14.4-3.5,21.6,1.2c0,0,9.9,4.5,20.1-5.1c0,0-8.2,3.8-13.2,1.8
		c-5-2-1.7-0.2-1.7-0.2s-8.7-4.2-14.8-5.2c-6.1-1-1.1-0.2-1.1-0.2S24,108.5,9.2,100.5z"/>
	<path fill="#FFFFFF" d="M64.1,153.6c-1.5,16.9,8-28.3,8-28.3S97.9,86.5,107.9,84c0,0,0.5-6.5,1.5-8.9c0,0,12.3-2.2,16.9,3.5
		c0,0-8.9,0-11.4,1c0,0-1,7.2-1,10.1C113.8,89.6,67.1,120.3,64.1,153.6z"/>
</g>
</svg>
