<?xml version="1.0" encoding="utf-8"?>
<!-- Generator: Adobe Illustrator 18.1.0, SVG Export Plug-In . SVG Version: 6.00 Build 0)  -->
<!DOCTYPE svg PUBLIC "-//W3C//DTD SVG 1.1//EN" "http://www.w3.org/Graphics/SVG/1.1/DTD/svg11.dtd">
<svg version="1.1" id="Layer_1" xmlns="http://www.w3.org/2000/svg" xmlns:xlink="http://www.w3.org/1999/xlink" x="0px" y="0px"
	 viewBox="0 0 234.4 134.6" enable-background="new 0 0 234.4 134.6" xml:space="preserve">
<path fill="#74AB3D" d="M0.1,123.5v-3.7c4.2-5.7,15.6-13,22.6-14.5l0,0c4.7-1,9-3.2,12.5-6.4l15.4-14c7.5-6.8,16.9-10.5,26.6-11
	c7.3-0.3,14.8,1.2,21.6,4.8l85.1,44.7H0.1z"/>
<path fill="#529E43" d="M98.6,78.8c-6.8-3.6-14.2-5.1-21.5-4.8l0,0v49.5l106.7,0L98.6,78.8z"/>
<path fill="#529E43" d="M54.5,115.4L54.5,115.4c-16.4-19,4.9-36.6,4.9-36.6c-6.2,3.1-21.3,17.6-21.3,17.6s-4,3.9-15.5,9.1
	c0,0,16.8-4.7,32.9,11.1L54.5,115.4z"/>
<path fill="#279646" d="M89.1,122.3c0,0,22.9-4.7,22.9-36.4c0,0,63.4,33.5,71.7,37.7L89.1,122.3z"/>
<polygon fill="#AADADF" points="133.1,97.5 141.2,41.2 155.1,41.2 162.2,112.7 130.4,112.5 "/>
<polygon fill="#80C2CF" points="147,41.2 147,112.6 162.2,112.6 155.1,41.2 "/>
<path fill="#B3B3B3" d="M144.6,41.2c0,0-3.8-20.6-1.9-28.4c1.4-5.8,5.4-13.6,14-12.8c11.5,1.1,9.4,9,9.4,9s0,7.8-7.8,7.8
	c-7.8,0-8.9,15.7-7.1,24.4H144.6z"/>
<polygon fill="#AADADF" points="146.9,117.9 146.9,97.2 139.9,97.2 132.9,97.2 129.6,97.2 123.4,103.4 120.6,103.4 120.6,97.2 
	113.9,97.2 113.9,127.9 146.9,127.9 "/>
<rect x="0" y="123.6" fill="#8FBB30" width="234.3" height="11"/>
<g>
	<g>
		<path fill="none" stroke="#69C9BD" stroke-miterlimit="10" d="M161.8,117.9"/>
	</g>
</g>
<g>
	<g>
		<path fill="none" stroke="#69C9BD" stroke-miterlimit="10" d="M163.1,120.5"/>
	</g>
</g>
<rect x="117.2" y="107.5" fill="#80C2CF" width="5.9" height="4"/>
<rect x="130.4" y="107.5" fill="#80C2CF" width="6.7" height="4"/>
<polygon fill="#80C2CF" points="129.6,97.2 135,102.6 142.2,102.6 142.2,116.5 147,116.5 147,97.2 "/>
<polygon fill="#5B9FAD" points="129.6,97.2 135,102.6 138.3,102.6 132.9,97.2 "/>
<polygon fill="#5B9FAD" points="136.6,97.2 142,102.6 145.3,102.6 140,97.2 "/>
<polygon fill="#5B9FAD" points="143.4,97.2 148.9,102.6 152.1,102.6 146.8,97.2 "/>
<path fill="#CCCD3C" d="M234.4,123.5c0,0-12.6-12.2-24.6-19.4c-17.8-10.6-36-14.2-60.7-0.7c-28,15.3-57.2,20-57.2,20H234.4z"/>
<path fill="#CAC12C" d="M183.8,95v12.6v16h50.6c0,0-12.6-12.2-24.6-19.4C201.4,99.2,192.9,95.8,183.8,95z"/>
<g>
	<rect x="174.9" y="94.1" fill="#784A3B" width="2.3" height="12.3"/>
	<path fill="#8FBB30" d="M182.6,86.2c0.3-0.5,0.4-1,0.4-1.6c0-1.9-1.5-3.4-3.4-3.4c0,0-0.1,0-0.1,0c0.1-0.3,0.1-0.6,0.1-0.9
		c0-1.9-1.5-3.4-3.4-3.4c-1.9,0-3.4,1.5-3.4,3.4c0,0,0,0,0,0c0,0,0,0,0,0c-1.9,0-3.4,1.5-3.4,3.4c0,0.7,0.2,1.4,0.6,2
		c-0.2,0-0.4,0-0.6,0c-2.5,0-4.6,2-4.6,4.6c0,2.5,2,4.6,4.6,4.6c0.8,0,1.5-0.2,2.1-0.5c0.6,1.8,2.3,3.2,4.4,3.2
		c1.9,0,3.5-1.1,4.2-2.8c0.7,0.4,1.5,0.6,2.3,0.6c2.5,0,4.6-2,4.6-4.6C187,88.3,185.1,86.4,182.6,86.2z M176.3,83.8
		c0,0.1,0,0.1,0,0.2c0,0-0.1,0-0.1,0c0-0.1,0-0.1,0-0.2c0,0,0,0,0,0c0,0,0,0,0,0C176.3,83.8,176.3,83.8,176.3,83.8z"/>
	<path fill="#74AB3D" d="M182.6,86.2c0.3-0.5,0.4-1,0.4-1.6c0-1.9-1.5-3.4-3.4-3.4c0,0-0.1,0-0.1,0c0.1-0.3,0.1-0.6,0.1-0.9
		c0-1.9-1.5-3.4-3.4-3.4c-0.1,0-0.2,0-0.3,0v20.5c1.9,0,3.5-1.1,4.2-2.8c0.7,0.4,1.5,0.6,2.3,0.6c2.5,0,4.6-2,4.6-4.6
		C187,88.3,185.1,86.4,182.6,86.2z M176.3,84C176.3,83.9,176.2,83.9,176.3,84c-0.1-0.1-0.1-0.1-0.1-0.2c0,0,0,0,0,0c0,0,0,0,0,0
		c0,0,0.1,0,0.1,0C176.3,83.8,176.3,83.9,176.3,84z"/>
</g>
<g>
	<rect x="197.4" y="107.5" fill="#784A3B" width="2.3" height="12.3"/>
	<path fill="#8FBB30" d="M206.6,104.2c0-1.6-0.8-3-2.1-3.8c0.6-0.6,0.9-1.4,0.9-2.3c0-1.9-1.5-3.4-3.4-3.4c0,0-0.1,0-0.1,0
		c0.1-0.3,0.1-0.6,0.1-0.9c0-1.9-1.5-3.4-3.4-3.4s-3.4,1.5-3.4,3.4c0,0,0,0,0,0c0,0,0,0,0,0c-1.9,0-3.4,1.5-3.4,3.4
		c0,0.8,0.3,1.5,0.7,2.1c-1.9,0.5-3.4,2.3-3.4,4.4c0,2.5,2,4.6,4.6,4.6c0.1,0,0.1,0,0.2,0c0.6,1.9,2.3,3.3,4.4,3.3
		c1.9,0,3.5-1.2,4.2-2.8C204.8,108.5,206.6,106.6,206.6,104.2z M198.8,97.2c0,0.1,0,0.1,0,0.2c0,0-0.1,0-0.1,0c0-0.1,0-0.1,0-0.2
		c0,0,0,0,0,0c0,0,0,0,0,0C198.7,97.2,198.7,97.2,198.8,97.2z"/>
	<path fill="#74AB3D" d="M204.5,100.4c0.6-0.6,0.9-1.4,0.9-2.3c0-1.9-1.5-3.4-3.4-3.4c0,0-0.1,0-0.1,0c0.1-0.3,0.1-0.6,0.1-0.9
		c0-1.9-1.5-3.4-3.4-3.4c0,0-0.1,0-0.1,0v21.2c1.8-0.1,3.3-1.2,4-2.8c2.3-0.2,4.1-2.2,4.1-4.6C206.6,102.6,205.8,101.2,204.5,100.4z
		 M198.7,97.4C198.7,97.4,198.6,97.4,198.7,97.4c-0.1-0.1-0.1-0.1-0.1-0.2c0,0,0,0,0,0c0,0,0,0,0,0c0,0,0.1,0,0.1,0
		C198.7,97.2,198.7,97.3,198.7,97.4z"/>
</g>
<path fill="#CAC12C" d="M183.8,107.5c0,0-5,16-32.8,16l32.8,0V107.5z"/>
<path fill="#999999" d="M155.9,16.4"/>
<path fill="#AADADF" d="M79.2,123.5v-3c0,0,0.4-5,5.7-5c5.3,0,29,0,29,0v-4H85.2c0,0-10,0-10,10c0,2.8,0,1.8,0,1.9L79.2,123.5z"/>
<path fill="#5B9FAD" d="M113.9,113.9H84.4c0,0-6.8,0.5-6.8,6.6v3.1l1.6,0v-3c0,0,0.6-5,5.7-5c4.8,0,29,0,29,0V113.9z"/>
<path fill="#AADADF" d="M88.2,116.5L88.2,116.5c-0.5,0-0.9-0.4-0.9-0.9v-4c0-0.5,0.4-0.9,0.9-0.9l0,0c0.5,0,0.9,0.4,0.9,0.9v4
	C89.1,116.1,88.7,116.5,88.2,116.5z"/>
<path fill="#AADADF" d="M97.7,116.5L97.7,116.5c-0.5,0-0.9-0.4-0.9-0.9v-4c0-0.5,0.4-0.9,0.9-0.9l0,0c0.5,0,0.9,0.4,0.9,0.9v4
	C98.6,116.1,98.2,116.5,97.7,116.5z"/>
<path fill="#AADADF" d="M106.2,116.5L106.2,116.5c-0.5,0-0.9-0.4-0.9-0.9v-4c0-0.5,0.4-0.9,0.9-0.9l0,0c0.5,0,0.9,0.4,0.9,0.9v4
	C107.2,116.1,106.7,116.5,106.2,116.5z"/>
<rect x="89.1" y="111.6" fill="#5B9FAD" width="1.1" height="2.8"/>
<rect x="98.6" y="111.6" fill="#5B9FAD" width="1.1" height="2.8"/>
<rect x="107.2" y="111.6" fill="#5B9FAD" width="1.1" height="2.8"/>
<path fill="#CAC12C" d="M118.9,116.5c0,0,14.9-3.4,22,4c0,0,1,0.7,1.3-0.7c0,0-5.2-6-18.2-5.1L118.9,116.5z"/>
<path fill="#CAC12C" d="M142.2,119.9c0,0,3.9-7.5,17.3-7.3c0,0-10.1-6.5-23.4,3.6L142.2,119.9z"/>
<path opacity="0.52" fill="#AADADF" d="M91.9,123.5c-22.7,0-91.8,0-91.8,0v-3.7h108.2C108.3,119.9,94.8,123.5,91.9,123.5z"/>
</svg>
