<?xml version="1.0" encoding="utf-8"?>
<!-- Generator: Adobe Illustrator 18.1.0, SVG Export Plug-In . SVG Version: 6.00 Build 0)  -->
<!DOCTYPE svg PUBLIC "-//W3C//DTD SVG 1.1//EN" "http://www.w3.org/Graphics/SVG/1.1/DTD/svg11.dtd">
<svg version="1.1" id="Layer_1" xmlns="http://www.w3.org/2000/svg" xmlns:xlink="http://www.w3.org/1999/xlink" x="0px" y="0px"
	 viewBox="0.3 70.1 799.7 422" enable-background="new 0.3 70.1 799.7 422" xml:space="preserve">
<path fill="#74AB3D" d="M0.3,491.8v-12.6c14.3-19.5,53.2-44.4,77.1-49.5l0,0c16-3.4,30.7-10.9,42.7-21.8l52.6-47.8
	c25.6-23.2,57.7-35.8,90.8-37.5c24.9-1,50.5,4.1,73.7,16.4l290.4,152.6H0.3V491.8z"/>
<path fill="#529E43" d="M336.5,339.2c-23.2-12.3-48.5-17.4-73.4-16.4l0,0v168.9h364.2L336.5,339.2z"/>
<path fill="#529E43" d="M186,464.2L186,464.2c-56-64.8,16.7-124.9,16.7-124.9c-21.2,10.6-72.7,60.1-72.7,60.1s-13.7,13.3-52.9,31.1
	c0,0,57.3-16,112.3,37.9L186,464.2z"/>
<path fill="#279646" d="M304.1,487.7c0,0,78.2-16,78.2-124.2c0,0,216.4,114.3,244.7,128.7L304.1,487.7z"/>
<polygon fill="#AADADF" points="454.3,403.1 481.9,210.9 529.4,210.9 553.6,454.9 445.1,454.3 "/>
<polygon fill="#80C2CF" points="501.7,210.9 501.7,454.6 553.6,454.6 529.4,210.9 "/>
<path fill="#B3B3B3" d="M493.5,210.9c0,0-13-70.3-6.5-96.9c4.8-19.8,18.4-46.4,47.8-43.7c39.2,3.8,32.1,30.7,32.1,30.7
	s0,26.6-26.6,26.6s-30.4,53.6-24.2,83.3H493.5z"/>
<polygon fill="#AADADF" points="501.4,462.8 501.4,402 477.5,402 453.6,402 442.3,402 421.2,420.2 411.6,420.2 411.6,402 388.7,402 
	388.7,492.2 501.4,492.2 "/>
<g>
	<g>
		<path fill="none" stroke="#69C9BD" stroke-miterlimit="10" d="M552.2,472.7"/>
	</g>
</g>
<g>
	<g>
		<path fill="none" stroke="#69C9BD" stroke-miterlimit="10" d="M556.7,481.6"/>
	</g>
</g>
<rect x="400" y="437.2" fill="#80C2CF" width="20.1" height="13.7"/>
<rect x="445.1" y="437.2" fill="#80C2CF" width="22.9" height="13.7"/>
<polygon fill="#80C2CF" points="442.3,402 460.8,420.5 485.3,420.5 485.3,467.9 501.7,467.9 501.7,402 "/>
<polygon fill="#5B9FAD" points="442.3,402 460.8,420.5 472,420.5 453.6,402 "/>
<polygon fill="#5B9FAD" points="466.2,402 484.6,420.5 495.9,420.5 477.8,402 "/>
<polygon fill="#5B9FAD" points="489.4,402 508.2,420.5 519.1,420.5 501,402 "/>
<path fill="#CCCD3C" d="M800,491.8c0,0-43-41.6-84-66.2c-60.8-36.2-122.9-48.5-207.2-2.4c-95.6,52.2-195.2,68.3-195.2,68.3H800
	V491.8z"/>
<path fill="#CAC12C" d="M627.3,394.5v43v54.6H800c0,0-43-41.6-84-66.2C687.4,408.9,658.4,397.3,627.3,394.5z"/>
<g>
	<rect x="596.9" y="391.5" fill="#784A3B" width="7.8" height="42"/>
	<path fill="#8FBB30" d="M623.2,364.5c1-1.7,1.4-3.4,1.4-5.5c0-6.5-5.1-11.6-11.6-11.6h-0.3c0.3-1,0.3-2,0.3-3.1
		c0-6.5-5.1-11.6-11.6-11.6s-11.6,5.1-11.6,11.6l0,0l0,0c-6.5,0-11.6,5.1-11.6,11.6c0,2.4,0.7,4.8,2,6.8c-0.7,0-1.4,0-2,0
		c-8.5,0-15.7,6.8-15.7,15.7c0,8.5,6.8,15.7,15.7,15.7c2.7,0,5.1-0.7,7.2-1.7c2,6.1,7.8,10.9,15,10.9c6.5,0,11.9-3.8,14.3-9.6
		c2.4,1.4,5.1,2,7.8,2c8.5,0,15.7-6.8,15.7-15.7C638.2,371.7,631.7,365.2,623.2,364.5z M601.7,356.3c0,0.3,0,0.3,0,0.7h-0.3
		c0-0.3,0-0.3,0-0.7l0,0l0,0C601.7,356.3,601.7,356.3,601.7,356.3z"/>
	<path fill="#74AB3D" d="M623.2,364.5c1-1.7,1.4-3.4,1.4-5.5c0-6.5-5.1-11.6-11.6-11.6h-0.3c0.3-1,0.3-2,0.3-3.1
		c0-6.5-5.1-11.6-11.6-11.6c-0.3,0-0.7,0-1,0v70c6.5,0,11.9-3.8,14.3-9.6c2.4,1.4,5.1,2,7.8,2c8.5,0,15.7-6.8,15.7-15.7
		C638.2,371.7,631.7,365.2,623.2,364.5z M601.7,357C601.7,356.7,601.4,356.7,601.7,357c-0.3-0.3-0.3-0.3-0.3-0.7l0,0l0,0h0.3
		C601.7,356.3,601.7,356.7,601.7,357z"/>
</g>
<g>
	<rect x="673.7" y="437.2" fill="#784A3B" width="7.8" height="42"/>
	<path fill="#8FBB30" d="M705.1,425.9c0-5.5-2.7-10.2-7.2-13c2-2,3.1-4.8,3.1-7.8c0-6.5-5.1-11.6-11.6-11.6h-0.3
		c0.3-1,0.3-2,0.3-3.1c0-6.5-5.1-11.6-11.6-11.6s-11.6,5.1-11.6,11.6l0,0l0,0c-6.5,0-11.6,5.1-11.6,11.6c0,2.7,1,5.1,2.4,7.2
		c-6.5,1.7-11.6,7.8-11.6,15c0,8.5,6.8,15.7,15.7,15.7c0.3,0,0.3,0,0.7,0c2,6.5,7.8,11.3,15,11.3c6.5,0,11.9-4.1,14.3-9.6
		C699,440.6,705.1,434.1,705.1,425.9z M678.5,402c0,0.3,0,0.3,0,0.7h-0.3c0-0.3,0-0.3,0-0.7l0,0l0,0C678.2,402,678.2,402,678.5,402z
		"/>
	<path fill="#74AB3D" d="M698,413c2-2,3.1-4.8,3.1-7.8c0-6.5-5.1-11.6-11.6-11.6h-0.3c0.3-1,0.3-2,0.3-3.1c0-6.5-5.1-11.6-11.6-11.6
		h-0.3v72.4c6.1-0.3,11.3-4.1,13.7-9.6c7.8-0.7,14-7.5,14-15.7C705.1,420.5,702.4,415.7,698,413z M678.2,402.7
		C678.2,402.7,677.8,402.7,678.2,402.7c-0.3-0.3-0.3-0.3-0.3-0.7l0,0l0,0h0.3C678.2,402,678.2,402.4,678.2,402.7z"/>
</g>
<path fill="#CAC12C" d="M627.3,437.2c0,0-17.1,54.6-111.9,54.6h111.9V437.2z"/>
<path fill="#999999" d="M532.1,126.3"/>
<path fill="#AADADF" d="M270.3,491.8v-10.2c0,0,1.4-17.1,19.5-17.1c18.1,0,99,0,99,0v-13.7h-98c0,0-34.1,0-34.1,34.1
	c0,9.6,0,6.1,0,6.5L270.3,491.8z"/>
<path fill="#5B9FAD" d="M388.7,459H288.1c0,0-23.2,1.7-23.2,22.5v10.6h5.5v-10.2c0,0,2-17.1,19.5-17.1c16.4,0,99,0,99,0L388.7,459
	L388.7,459z"/>
<path fill="#AADADF" d="M301,467.9L301,467.9c-1.7,0-3.1-1.4-3.1-3.1v-13.7c0-1.7,1.4-3.1,3.1-3.1l0,0c1.7,0,3.1,1.4,3.1,3.1v13.7
	C304.1,466.6,302.7,467.9,301,467.9z"/>
<path fill="#AADADF" d="M333.4,467.9L333.4,467.9c-1.7,0-3.1-1.4-3.1-3.1v-13.7c0-1.7,1.4-3.1,3.1-3.1l0,0c1.7,0,3.1,1.4,3.1,3.1
	v13.7C336.5,466.6,335.2,467.9,333.4,467.9z"/>
<path fill="#AADADF" d="M362.5,467.9L362.5,467.9c-1.7,0-3.1-1.4-3.1-3.1v-13.7c0-1.7,1.4-3.1,3.1-3.1l0,0c1.7,0,3.1,1.4,3.1,3.1
	v13.7C365.9,466.6,364.2,467.9,362.5,467.9z"/>
<rect x="304.1" y="451.2" fill="#5B9FAD" width="3.8" height="9.6"/>
<rect x="336.5" y="451.2" fill="#5B9FAD" width="3.8" height="9.6"/>
<rect x="365.9" y="451.2" fill="#5B9FAD" width="3.8" height="9.6"/>
<path fill="#CAC12C" d="M405.8,467.9c0,0,50.9-11.6,75.1,13.7c0,0,3.4,2.4,4.4-2.4c0,0-17.7-20.5-62.1-17.4L405.8,467.9z"/>
<path fill="#CAC12C" d="M485.3,479.5c0,0,13.3-25.6,59-24.9c0,0-34.5-22.2-79.9,12.3L485.3,479.5z"/>
<path opacity="0.52" fill="#AADADF" enable-background="new    " d="M313.7,491.8c-77.5,0-313.3,0-313.3,0v-12.6h369.3
	C369.6,479.5,323.5,491.8,313.7,491.8z"/>
</svg>
