<?xml version="1.0" encoding="utf-8"?>
<!-- Generator: Adobe Illustrator 18.1.0, SVG Export Plug-In . SVG Version: 6.00 Build 0)  -->
<!DOCTYPE svg PUBLIC "-//W3C//DTD SVG 1.1//EN" "http://www.w3.org/Graphics/SVG/1.1/DTD/svg11.dtd">
<svg version="1.1" id="Layer_1" xmlns="http://www.w3.org/2000/svg" xmlns:xlink="http://www.w3.org/1999/xlink" x="0px" y="0px"
	 viewBox="0 0 322.2 372.2" enable-background="new 0 0 322.2 372.2" xml:space="preserve">
<path fill="#784A3B" d="M32.7,271.7L45,291.4c0.1,0.1,0.1,0.3,0.1,0.4l0,0c0,3.7,1.4,7.3,3.9,10l0.6,0.7c0.1,0.1,0.1,0.2,0.2,0.3
	l0.1,0.2c1.4,3.8,4.4,6.7,8.3,7.8l12.1,3.8c0.1,0,0.2,0,0.2,0h6.6c0.4,0,0.7,0.3,0.8,0.6l1.4,6.7c0.1,0.2,0.2,0.4,0.4,0.5l11.3,6
	c0.2,0.1,0.4,0.3,0.4,0.6l1.3,7.2c0,0,0,0.1,0,0.1c0.8,3.2,2.8,6,5.6,7.8l7.1,4.7c0.1,0.1,0.2,0.2,0.3,0.3l1.6,3.3
	c1.5,3.1,4.1,5.6,7.3,6.9l31.9,12.8c0.3,0.1,0.6,0.1,0.8-0.1l10.9-8.4c0.3-0.2,0.4-0.5,0.3-0.9l-1.6-5.9c0-0.1,0-0.3,0-0.4
	c1-3.8,7.2-7.2,10.9-8.1c0,0,0.1,0,0.1,0l11.9-2.8c1.4-0.3,2.8-0.9,4-1.6l17.5-10.3c0.6-0.4,1.3-0.6,2-0.8l4.2-1.1
	c3-0.8,5.6-2.8,7.3-5.4l2.4-3.9c2.9-4.8,27.1-9.1,30.5-9.7c0.3,0,0.5-0.2,0.6-0.4c1.4-2.8,4.1-12.4,3.2-14.7l-1.7-4.4
	c-0.1-0.3-0.1-0.6,0.1-0.8l15.9-19.3c0.4-0.5,0.1-1.3-0.6-1.3l-231,0.1C33.7,271.7,33.6,271.6,32.7,271.7z"/>
<path fill="#5B362C" d="M157,356.6c0.9-3.9,7.2-7.4,11-8.3c0,0,0.1,0,0.1,0l12-2.8c1.3-0.3,2.6-0.8,3.8-1.5l17.7-10.5
	c0.6-0.3,1.1-0.6,1.8-0.7l4.7-1.2c2.8-0.8,5.3-2.6,6.8-5.1l2.6-4.2c3.1-5.1,30.8-9.8,30.8-9.8c1.4-2.2,4.3-12.6,3.4-15l-1.8-4.8
	l17.3-21h-120v100.7l11.7-9L157,356.6z"/>
<g>
	<path fill="#B3B3B3" d="M227.7,138.9c0-3.5-2.8-6.3-6.3-6.3c-1.4,0-2.7,0.5-3.7,1.2c0.9-1.3,1.5-3,1.5-4.7c0-1.8-1.2-4.4-3.8-5
		c0,0-1.6,0-3,0.7c0,0,0,0,0,0c-2.5,1.1-4.3,3.2-5.1,5.8c-1.8-1-3.9-1.5-6.2-1.5c-5.4,0-10,3.3-12,8c-0.7-0.2-1.3-0.3-2-0.3
		c-4.6,0-8.4,3.7-8.4,8.4s3.7,8.4,8.4,8.4c0.1,0,0.2,0,0.3,0c0.7,4.7,4.8,8.4,9.7,8.4c2.4,0,4.6-0.8,6.3-2.2l0-0.1
		c2.2,2.3,5.4,3.7,8.8,3.7c6.8,0,12.4-5.6,12.4-12.4c0-2.1-0.5-4.1-1.5-5.8C225.7,144.3,227.7,141.9,227.7,138.9z"/>
	<path fill="#999999" d="M245.2,137c-0.1-7.1-5.9-12.9-13.1-12.9c-3.5,0-6.7,1.4-9.1,3.7c-1.1-1.5-2.7-2.6-4.5-3.2l0,0
		c0,0-0.1,0-0.4-0.1c0,0-0.1,0-0.1,0c-0.2,0-0.3-0.1-0.5-0.1c-0.1,0-0.2,0-0.3-0.1v0c-0.6-0.1-1.3-0.2-2-0.1c2.6,0.6,3.8,3.2,3.8,5
		c0,1.8-0.5,3.4-1.5,4.7c1.1-0.8,2.3-1.2,3.7-1.2c3.5,0,6.3,2.8,6.3,6.3c0,2.1-1,3.9-2.6,5.1c-9-10.7-19.9-3.3-19.9-3.3
		c10.9-5,16.8,2.9,18.1,5c0.7,1.6,1.2,3.4,1.2,5.2c0,6.8-5.6,12.4-12.4,12.4c-3.1,0-5.9-1.2-8.1-3c-0.3-0.2-0.5-0.3-0.7-0.6
		c0,0,4.5,7.5,14.2,8.4c0.6,0.1,1.2,0.1,1.8,0.1c6.2,0,11.7-3,15.2-7.5c1.8,0.9,3.9,1.5,6,1.5c7.2,0,13.1-5.9,13.1-13.1
		C253.4,143.6,250,138.9,245.2,137z"/>
</g>
<path fill="#74AB3D" d="M32.8,260.6v-3.7c4.2-5.7,15.6-13,22.6-14.5h0c4.7-1,9-3.2,12.5-6.4l15.4-14c7.5-6.8,16.9-10.5,26.6-11
	c7.3-0.3,14.8,1.2,21.6,4.8l85.1,44.7H32.8z"/>
<path fill="#529E43" d="M131.3,215.9c-6.8-3.6-14.2-5.1-21.5-4.8l0,0v49.5l106.7,0L131.3,215.9z"/>
<path fill="#529E43" d="M87.2,252.4L87.2,252.4c-16.4-19,4.9-36.6,4.9-36.6c-6.2,3.1-21.3,17.6-21.3,17.6s-4,3.9-15.5,9.1
	c0,0,16.8-4.7,32.9,11.1L87.2,252.4z"/>
<path fill="#279646" d="M121.9,259.3c0,0,22.9-4.7,22.9-36.4c0,0,63.4,33.5,71.7,37.7L121.9,259.3z"/>
<polygon fill="#AADADF" points="165.8,234.6 173.9,178.3 187.8,178.3 194.9,249.7 163.1,249.5 "/>
<polygon fill="#80C2CF" points="179.7,178.3 179.7,249.6 194.9,249.6 187.8,178.3 "/>
<path fill="#B3B3B3" d="M177.3,178.3c0,0-3.8-20.6-1.9-28.4c1.4-5.8,5.4-13.6,14-12.8c11.5,1.1,9.4,9,9.4,9s0,7.8-7.8,7.8
	s-8.9,15.7-7.1,24.4H177.3z"/>
<polygon fill="#AADADF" points="179.6,255 179.6,234.3 172.6,234.3 165.6,234.3 162.3,234.3 156.1,240.5 153.3,240.5 153.3,234.3 
	146.6,234.3 146.6,265 179.6,265 "/>
<rect x="32.7" y="260.7" fill="#8FBB30" width="234.3" height="11"/>
<g>
	<g>
		<path fill="none" stroke="#69C9BD" stroke-miterlimit="10" d="M194.5,254.9"/>
	</g>
</g>
<g>
	<g>
		<path fill="none" stroke="#69C9BD" stroke-miterlimit="10" d="M195.8,257.6"/>
	</g>
</g>
<rect x="149.9" y="244.6" fill="#80C2CF" width="5.9" height="4"/>
<rect x="163.1" y="244.6" fill="#80C2CF" width="6.7" height="4"/>
<polygon fill="#80C2CF" points="162.3,234.3 167.7,239.7 174.9,239.7 174.9,253.6 179.7,253.6 179.7,234.3 "/>
<polygon fill="#5B9FAD" points="162.3,234.3 167.7,239.7 171,239.7 165.6,234.3 "/>
<polygon fill="#5B9FAD" points="169.3,234.3 174.7,239.7 178,239.7 172.7,234.3 "/>
<polygon fill="#5B9FAD" points="176.2,234.3 181.6,239.7 184.9,239.7 179.5,234.3 "/>
<path fill="#CCCD3C" d="M267.1,260.6c0,0-12.6-12.2-24.6-19.4c-17.8-10.6-36-14.2-60.7-0.7c-28,15.3-57.2,20-57.2,20H267.1z"/>
<path fill="#CAC12C" d="M216.5,232v12.6v16h50.6c0,0-12.6-12.2-24.6-19.4C234.1,236.3,225.6,232.8,216.5,232z"/>
<g>
	<rect x="207.6" y="231.2" fill="#784A3B" width="2.3" height="12.3"/>
	<path fill="#8FBB30" d="M215.3,223.3c0.3-0.5,0.4-1,0.4-1.6c0-1.9-1.5-3.4-3.4-3.4c0,0-0.1,0-0.1,0c0.1-0.3,0.1-0.6,0.1-0.9
		c0-1.9-1.5-3.4-3.4-3.4c-1.9,0-3.4,1.5-3.4,3.4c0,0,0,0,0,0c0,0,0,0,0,0c-1.9,0-3.4,1.5-3.4,3.4c0,0.7,0.2,1.4,0.6,2
		c-0.2,0-0.4,0-0.6,0c-2.5,0-4.6,2-4.6,4.6c0,2.5,2,4.6,4.6,4.6c0.8,0,1.5-0.2,2.1-0.5c0.6,1.8,2.3,3.2,4.4,3.2
		c1.9,0,3.5-1.1,4.2-2.8c0.7,0.4,1.5,0.6,2.3,0.6c2.5,0,4.6-2,4.6-4.6C219.7,225.4,217.8,223.4,215.3,223.3z M209.1,220.8
		c0,0.1,0,0.1,0,0.2c0,0-0.1,0-0.1,0c0-0.1,0-0.1,0-0.2c0,0,0,0,0,0c0,0,0,0,0,0C209,220.8,209,220.8,209.1,220.8z"/>
	<path fill="#74AB3D" d="M215.3,223.3c0.3-0.5,0.4-1,0.4-1.6c0-1.9-1.5-3.4-3.4-3.4c0,0-0.1,0-0.1,0c0.1-0.3,0.1-0.6,0.1-0.9
		c0-1.9-1.5-3.4-3.4-3.4c-0.1,0-0.2,0-0.3,0v20.5c1.9,0,3.5-1.1,4.2-2.8c0.7,0.4,1.5,0.6,2.3,0.6c2.5,0,4.6-2,4.6-4.6
		C219.7,225.4,217.8,223.4,215.3,223.3z M209,221C209,221,208.9,221,209,221c-0.1-0.1-0.1-0.1-0.1-0.2c0,0,0,0,0,0c0,0,0,0,0,0
		c0,0,0.1,0,0.1,0C209,220.9,209,220.9,209,221z"/>
</g>
<g>
	<rect x="230.1" y="244.6" fill="#784A3B" width="2.3" height="12.3"/>
	<path fill="#8FBB30" d="M239.3,241.3c0-1.6-0.8-3-2.1-3.8c0.6-0.6,0.9-1.4,0.9-2.3c0-1.9-1.5-3.4-3.4-3.4c0,0-0.1,0-0.1,0
		c0.1-0.3,0.1-0.6,0.1-0.9c0-1.9-1.5-3.4-3.4-3.4s-3.4,1.5-3.4,3.4c0,0,0,0,0,0c0,0,0,0,0,0c-1.9,0-3.4,1.5-3.4,3.4
		c0,0.8,0.3,1.5,0.7,2.1c-1.9,0.5-3.4,2.3-3.4,4.4c0,2.5,2,4.6,4.6,4.6c0.1,0,0.1,0,0.2,0c0.6,1.9,2.3,3.3,4.4,3.3
		c1.9,0,3.5-1.2,4.2-2.8C237.5,245.6,239.3,243.6,239.3,241.3z M231.5,234.2c0,0.1,0,0.1,0,0.2c0,0-0.1,0-0.1,0c0-0.1,0-0.1,0-0.2
		c0,0,0,0,0,0c0,0,0,0,0,0C231.4,234.2,231.4,234.2,231.5,234.2z"/>
	<path fill="#74AB3D" d="M237.2,237.4c0.6-0.6,0.9-1.4,0.9-2.3c0-1.9-1.5-3.4-3.4-3.4c0,0-0.1,0-0.1,0c0.1-0.3,0.1-0.6,0.1-0.9
		c0-1.9-1.5-3.4-3.4-3.4c0,0-0.1,0-0.1,0v21.2c1.8-0.1,3.3-1.2,4-2.8c2.3-0.2,4.1-2.2,4.1-4.6C239.3,239.6,238.5,238.2,237.2,237.4z
		 M231.4,234.4C231.4,234.4,231.4,234.4,231.4,234.4c-0.1-0.1-0.1-0.1-0.1-0.2c0,0,0,0,0,0c0,0,0,0,0,0c0,0,0.1,0,0.1,0
		C231.4,234.3,231.4,234.4,231.4,234.4z"/>
</g>
<path fill="#CAC12C" d="M216.5,244.6c0,0-5,16-32.8,16h32.8V244.6z"/>
<circle fill="#A17B70" cx="124.8" cy="279.9" r="3"/>
<circle fill="#A17B70" cx="104.1" cy="282.9" r="3"/>
<circle fill="#A17B70" cx="85.9" cy="282.9" r="3"/>
<circle fill="#A17B70" cx="75.1" cy="293" r="2.1"/>
<circle fill="#A17B70" cx="94.2" cy="295.2" r="2.1"/>
<circle fill="#A17B70" cx="111.9" cy="307.2" r="2.1"/>
<circle fill="#A17B70" cx="82.9" cy="304.1" r="1"/>
<circle fill="#A17B70" cx="97.4" cy="313.6" r="1"/>
<circle fill="#A17B70" cx="58.7" cy="295.2" r="1"/>
<circle fill="#A17B70" cx="107.1" cy="331.2" r="1"/>
<circle fill="#A17B70" cx="121.9" cy="317.2" r="1"/>
<circle fill="#A17B70" cx="134.8" cy="309.4" r="1"/>
<circle fill="#A17B70" cx="48.2" cy="280.9" r="1"/>
<circle fill="#A17B70" cx="129.9" cy="295.2" r="2.1"/>
<circle fill="#A17B70" cx="114" cy="293" r="2.1"/>
<circle fill="#A17B70" cx="138.9" cy="283.9" r="2.1"/>
<circle fill="#A17B70" cx="66.5" cy="279.9" r="3"/>
<path fill="#999999" d="M19.1,101.3"/>
<path fill="#999999" d="M204.5,159.7c0,0-6.7-7.3-3.1-13.5c0,0-4.8,7.3,3.8,15.4L204.5,159.7z"/>
<path fill="#999999" d="M204.1,165.3"/>
<path fill="#999999" d="M188.6,153.5"/>
<path fill="#AADADF" d="M111.9,260.6v-3c0,0,0.4-5,5.7-5s29,0,29,0v-4h-28.7c0,0-10,0-10,10c0,2.8,0,1.8,0,1.9L111.9,260.6z"/>
<path fill="#5B9FAD" d="M146.6,250.9h-29.5c0,0-6.8,0.5-6.8,6.6v3.1l1.6,0v-3c0,0,0.6-5,5.7-5c4.8,0,29,0,29,0V250.9z"/>
<path fill="#AADADF" d="M120.9,253.6L120.9,253.6c-0.5,0-0.9-0.4-0.9-0.9v-4c0-0.5,0.4-0.9,0.9-0.9h0c0.5,0,0.9,0.4,0.9,0.9v4
	C121.9,253.1,121.4,253.6,120.9,253.6z"/>
<path fill="#AADADF" d="M130.4,253.6L130.4,253.6c-0.5,0-0.9-0.4-0.9-0.9v-4c0-0.5,0.4-0.9,0.9-0.9l0,0c0.5,0,0.9,0.4,0.9,0.9v4
	C131.3,253.1,130.9,253.6,130.4,253.6z"/>
<path fill="#AADADF" d="M138.9,253.6L138.9,253.6c-0.5,0-0.9-0.4-0.9-0.9v-4c0-0.5,0.4-0.9,0.9-0.9l0,0c0.5,0,0.9,0.4,0.9,0.9v4
	C139.9,253.1,139.5,253.6,138.9,253.6z"/>
<rect x="121.9" y="248.6" fill="#5B9FAD" width="1.1" height="2.8"/>
<rect x="131.3" y="248.6" fill="#5B9FAD" width="1.1" height="2.8"/>
<rect x="139.9" y="248.6" fill="#5B9FAD" width="1.1" height="2.8"/>
<path fill="#CAC12C" d="M151.6,253.6c0,0,14.9-3.4,22,4c0,0,1,0.7,1.3-0.7c0,0-5.2-6-18.2-5.1L151.6,253.6z"/>
<path fill="#CAC12C" d="M174.9,256.9c0,0,3.9-7.5,17.3-7.3c0,0-10.1-6.5-23.4,3.6L174.9,256.9z"/>
<g>
	<path fill="#B3B3B3" d="M71.9,70.9c0-5.1-4.2-9.3-9.3-9.3c-2.1,0-3.9,0.7-5.5,1.8c1.3-1.9,2.1-4.3,2.1-6.9c0-2.6-1.8-6.5-5.6-7.3
		c0,0-2.3,0-4.4,1.1c0,0,0,0,0,0c-3.6,1.6-6.3,4.7-7.4,8.5c-2.7-1.4-5.7-2.3-9-2.3c-7.9,0-14.7,4.8-17.6,11.7c-1-0.2-2-0.4-3-0.4
		C5.5,67.9,0,73.3,0,80.1s5.5,12.2,12.2,12.2c0.1,0,0.3,0,0.4,0c1,6.9,7,12.2,14.2,12.2c3.5,0,6.7-1.2,9.2-3.3l0-0.1
		c3.3,3.3,7.9,5.4,12.9,5.4c10,0,18.1-8.1,18.1-18.1c0-3.1-0.8-6-2.1-8.5C69,78.8,71.9,75.2,71.9,70.9z"/>
	<path fill="#999999" d="M97.5,68.1c-0.1-10.4-8.6-18.8-19.1-18.8c-5.1,0-9.8,2-13.2,5.3c-1.6-2.2-3.9-3.8-6.5-4.7l0,0
		c0,0-0.2-0.1-0.6-0.2c-0.1,0-0.1,0-0.2,0c-0.2-0.1-0.5-0.1-0.8-0.2c-0.1,0-0.3-0.1-0.4-0.1v0c-0.8-0.1-1.8-0.2-3-0.2
		c3.7,0.8,5.5,4.6,5.5,7.2c0,2.6-0.8,5-2.1,6.9c1.5-1.1,3.4-1.8,5.5-1.8c5.1,0,9.3,4.2,9.3,9.3c0,3-1.5,5.7-3.7,7.4
		C55,62.7,39,73.5,39,73.5c15.9-7.4,24.5,4.3,26.4,7.3c1.1,2.3,1.7,4.9,1.7,7.6c0,10-8.1,18.1-18.1,18.1c-4.5,0-8.7-1.7-11.9-4.5
		c-0.4-0.2-0.7-0.5-1.1-0.8c0,0,6.5,11,20.7,12.3c0.8,0.1,1.7,0.1,2.6,0.1c9.1,0,17.1-4.3,22.2-11c2.6,1.4,5.6,2.2,8.8,2.2
		c10.5,0,19.1-8.6,19.1-19.1C109.4,77.7,104.5,70.9,97.5,68.1z"/>
</g>
<g>
	<path fill="#B3B3B3" d="M227.8,48.9c0-6.3-5.1-11.4-11.4-11.4c-2.5,0-4.8,0.8-6.7,2.2c1.7-2.4,2.6-5.3,2.6-8.5
		c0-3.2-2.2-7.9-6.8-8.9c0,0-2.8,0-5.5,1.3c0,0,0,0,0,0c-4.4,1.9-7.8,5.8-9.1,10.5c-3.3-1.8-7.1-2.8-11.1-2.8
		c-9.7,0-18,5.9-21.6,14.3c-1.2-0.3-2.4-0.5-3.7-0.5c-8.3,0-15,6.7-15,15s6.7,15,15,15c0.2,0,0.3,0,0.5,0c1.3,8.5,8.6,15,17.5,15
		c4.3,0,8.2-1.5,11.2-4l0-0.2c4,4.1,9.6,6.6,15.9,6.6c12.3,0,22.3-10,22.3-22.3c0-3.8-1-7.3-2.6-10.5
		C224.2,58.7,227.8,54.2,227.8,48.9z"/>
	<path fill="#999999" d="M259.2,45.4c-0.2-12.8-10.6-23.1-23.4-23.1c-6.3,0-12,2.5-16.3,6.6c-2-2.7-4.8-4.7-8-5.7l0,0
		c0,0-0.3-0.1-0.7-0.2c-0.1,0-0.1,0-0.2,0c-0.3-0.1-0.6-0.1-1-0.2c-0.2,0-0.3-0.1-0.5-0.1v0c-1-0.2-2.3-0.3-3.6-0.2
		c4.6,1,6.8,5.7,6.8,8.9c0,3.2-1,6.2-2.6,8.5c1.9-1.4,4.2-2.2,6.7-2.2c6.3,0,11.4,5.1,11.4,11.4c0,3.7-1.8,7-4.6,9.1
		c-16.2-19.2-35.8-5.9-35.8-5.9c19.6-9,30.1,5.2,32.4,8.9c1.3,2.8,2.1,6,2.1,9.4c0,12.3-10,22.3-22.3,22.3c-5.6,0-10.7-2.1-14.6-5.5
		c-0.5-0.3-0.9-0.6-1.3-1c0,0,8,13.5,25.4,15.1c1,0.1,2.1,0.2,3.1,0.2c11.1,0,21-5.3,27.3-13.5c3.2,1.7,6.9,2.7,10.8,2.7
		c13,0,23.5-10.5,23.5-23.5C273.9,57.3,267.8,48.9,259.2,45.4z"/>
</g>
<g>
	<path fill="#B3B3B3" d="M124.6,13.3c0-3.1-2.5-5.7-5.7-5.7c-1.3,0-2.4,0.4-3.4,1.1c0.8-1.2,1.3-2.7,1.3-4.3c0-1.6-1.1-4-3.4-4.5
		c0,0-1.4,0-2.7,0.7c0,0,0,0,0,0c-2.2,1-3.9,2.9-4.6,5.2c-1.6-0.9-3.5-1.4-5.5-1.4c-4.8,0-9,2.9-10.8,7.1c-0.6-0.1-1.2-0.2-1.8-0.2
		c-4.1,0-7.5,3.4-7.5,7.5s3.4,7.5,7.5,7.5c0.1,0,0.2,0,0.3,0c0.6,4.3,4.3,7.5,8.7,7.5c2.1,0,4.1-0.8,5.6-2l0-0.1
		c2,2,4.8,3.3,7.9,3.3c6.1,0,11.1-5,11.1-11.1c0-1.9-0.5-3.7-1.3-5.2C122.8,18.2,124.6,16,124.6,13.3z"/>
	<path fill="#999999" d="M140.3,11.6C140.2,5.2,135,0,128.6,0c-3.2,0-6,1.3-8.1,3.3c-1-1.3-2.4-2.3-4-2.9l0,0c0,0-0.1,0-0.3-0.1
		c0,0-0.1,0-0.1,0c-0.1,0-0.3-0.1-0.5-0.1c-0.1,0-0.2,0-0.2-0.1v0c-0.5-0.1-1.1-0.1-1.8-0.1c2.3,0.5,3.4,2.8,3.4,4.4
		c0,1.6-0.5,3.1-1.3,4.3c0.9-0.7,2.1-1.1,3.4-1.1c3.1,0,5.7,2.5,5.7,5.7c0,1.9-0.9,3.5-2.3,4.6c-8.1-9.6-17.9-2.9-17.9-2.9
		c9.8-4.5,15,2.6,16.2,4.4c0.7,1.4,1,3,1,4.7c0,6.1-5,11.1-11.1,11.1c-2.8,0-5.3-1-7.3-2.7c-0.2-0.1-0.5-0.3-0.7-0.5
		c0,0,4,6.7,12.7,7.6c0.5,0,1,0.1,1.6,0.1c5.6,0,10.5-2.7,13.6-6.8c1.6,0.8,3.5,1.3,5.4,1.3c6.5,0,11.7-5.2,11.7-11.7
		C147.7,17.5,144.6,13.3,140.3,11.6z"/>
</g>
<g>
	<path fill="#BFE7E7" d="M69.4,192.2c0-2.4-1.9-4.3-4.3-4.3c-0.9,0-1.8,0.3-2.5,0.8c0.6-0.9,1-2,1-3.2c0-1.2-0.8-3-2.6-3.3
		c0,0-1.1,0-2,0.5c0,0,0,0,0,0c-1.6,0.7-2.9,2.1-3.4,3.9c-1.2-0.7-2.6-1-4.1-1c-3.6,0-6.7,2.2-8.1,5.3c-0.4-0.1-0.9-0.2-1.4-0.2
		c-3.1,0-5.6,2.5-5.6,5.6c0,3.1,2.5,5.6,5.6,5.6c0.1,0,0.1,0,0.2,0c0.5,3.2,3.2,5.6,6.5,5.6c1.6,0,3.1-0.6,4.2-1.5l0-0.1
		c1.5,1.5,3.6,2.5,5.9,2.5c4.6,0,8.3-3.7,8.3-8.3c0-1.4-0.4-2.7-1-3.9C68.1,195.9,69.4,194.2,69.4,192.2z"/>
	<path fill="#AADADF" d="M81.2,190.9c-0.1-4.8-4-8.6-8.8-8.6c-2.4,0-4.5,0.9-6.1,2.5c-0.7-1-1.8-1.7-3-2.1l0,0c0,0-0.1,0-0.3-0.1
		c0,0,0,0-0.1,0c-0.1,0-0.2-0.1-0.4-0.1c-0.1,0-0.1,0-0.2,0v0c-0.4-0.1-0.8-0.1-1.4-0.1c1.7,0.4,2.5,2.1,2.5,3.3
		c0,1.2-0.4,2.3-1,3.2c0.7-0.5,1.6-0.8,2.5-0.8c2.4,0,4.3,1.9,4.3,4.3c0,1.4-0.7,2.6-1.7,3.4c-6-7.2-13.4-2.2-13.4-2.2
		c7.3-3.4,11.3,2,12.1,3.3c0.5,1.1,0.8,2.2,0.8,3.5c0,4.6-3.7,8.3-8.3,8.3c-2.1,0-4-0.8-5.4-2c-0.2-0.1-0.3-0.2-0.5-0.4
		c0,0,3,5,9.5,5.7c0.4,0,0.8,0.1,1.2,0.1c4.2,0,7.9-2,10.2-5.1c1.2,0.6,2.6,1,4,1c4.8,0,8.8-3.9,8.8-8.8
		C86.7,195.4,84.4,192.2,81.2,190.9z"/>
</g>
<g>
	<path fill="#B3B3B3" d="M303.8,108c0-2.5-2-4.6-4.6-4.6c-1,0-1.9,0.3-2.7,0.9c0.7-0.9,1.1-2.1,1.1-3.4c0-1.3-0.9-3.2-2.7-3.6
		c0,0-1.1,0-2.2,0.5c0,0,0,0,0,0c-1.8,0.8-3.1,2.3-3.6,4.2c-1.3-0.7-2.8-1.1-4.4-1.1c-3.9,0-7.2,2.4-8.6,5.7c-0.5-0.1-1-0.2-1.5-0.2
		c-3.3,0-6,2.7-6,6s2.7,6,6,6c0.1,0,0.1,0,0.2,0c0.5,3.4,3.4,6,7,6c1.7,0,3.3-0.6,4.5-1.6l0-0.1c1.6,1.6,3.9,2.7,6.3,2.7
		c4.9,0,8.9-4,8.9-8.9c0-1.5-0.4-2.9-1-4.2C302.3,111.9,303.8,110.1,303.8,108z"/>
	<path fill="#999999" d="M316.3,106.6c-0.1-5.1-4.2-9.2-9.4-9.2c-2.5,0-4.8,1-6.5,2.6c-0.8-1.1-1.9-1.9-3.2-2.3l0,0
		c0,0-0.1,0-0.3-0.1c0,0-0.1,0-0.1,0c-0.1,0-0.2-0.1-0.4-0.1c-0.1,0-0.1,0-0.2,0v0c-0.4-0.1-0.9-0.1-1.5-0.1
		c1.8,0.4,2.7,2.3,2.7,3.6c0,1.3-0.4,2.5-1.1,3.4c0.8-0.6,1.7-0.9,2.7-0.9c2.5,0,4.6,2,4.6,4.6c0,1.5-0.7,2.8-1.8,3.6
		c-6.5-7.7-14.3-2.4-14.3-2.4c7.8-3.6,12,2.1,13,3.6c0.5,1.1,0.8,2.4,0.8,3.7c0,4.9-4,8.9-8.9,8.9c-2.2,0-4.3-0.8-5.8-2.2
		c-0.2-0.1-0.4-0.2-0.5-0.4c0,0,3.2,5.4,10.2,6c0.4,0,0.8,0.1,1.3,0.1c4.5,0,8.4-2.1,10.9-5.4c1.3,0.7,2.8,1.1,4.3,1.1
		c5.2,0,9.4-4.2,9.4-9.4C322.2,111.3,319.8,108,316.3,106.6z"/>
</g>
<g>
	<path fill="#B3B3B3" d="M127,138.2c0-4-3.2-7.2-7.2-7.2c-1.6,0-3.1,0.5-4.2,1.4c1-1.5,1.7-3.4,1.7-5.4c0-2-1.4-5-4.3-5.6
		c0,0-1.8,0-3.4,0.8c0,0,0,0,0,0c-2.8,1.2-4.9,3.6-5.7,6.6c-2.1-1.1-4.4-1.7-7-1.7c-6.1,0-11.4,3.7-13.6,9c-0.7-0.2-1.5-0.3-2.3-0.3
		c-5.2,0-9.5,4.2-9.5,9.5s4.2,9.5,9.5,9.5c0.1,0,0.2,0,0.3,0c0.8,5.4,5.4,9.5,11,9.5c2.7,0,5.2-1,7.1-2.5l0-0.1
		c2.5,2.6,6.1,4.2,10,4.2c7.7,0,14-6.3,14-14c0-2.4-0.6-4.6-1.7-6.6C124.7,144.4,127,141.6,127,138.2z"/>
	<path fill="#999999" d="M146.8,136c-0.1-8.1-6.7-14.6-14.8-14.6c-4,0-7.6,1.6-10.2,4.1c-1.3-1.7-3-2.9-5.1-3.6l0,0
		c0,0-0.2-0.1-0.4-0.1c0,0-0.1,0-0.1,0c-0.2,0-0.4-0.1-0.6-0.1c-0.1,0-0.2,0-0.3-0.1v0c-0.6-0.1-1.4-0.2-2.3-0.1
		c2.9,0.7,4.3,3.6,4.3,5.6c0,2-0.6,3.9-1.7,5.4c1.2-0.9,2.7-1.4,4.2-1.4c4,0,7.2,3.2,7.2,7.2c0,2.4-1.1,4.4-2.9,5.7
		c-10.2-12.1-22.6-3.7-22.6-3.7c12.3-5.7,19,3.3,20.4,5.6c0.8,1.8,1.3,3.8,1.3,5.9c0,7.7-6.3,14-14,14c-3.5,0-6.7-1.3-9.2-3.4
		c-0.3-0.2-0.6-0.4-0.8-0.6c0,0,5.1,8.5,16,9.5c0.7,0.1,1.3,0.1,2,0.1c7,0,13.3-3.3,17.2-8.5c2,1.1,4.4,1.7,6.8,1.7
		c8.2,0,14.8-6.6,14.8-14.8C156,143.5,152.2,138.2,146.8,136z"/>
</g>
<path opacity="0.55" fill="#442020" d="M243.8,283c-1.7-0.4-6.8-1.9-8.5-1.7c-4.3,0.5-4.2,3.5-7.3,6.5c-0.5,0.5-2.4,1.3-3,1.7
	c-0.9,0.5-2,0.7-3.1,0.9c-6.5,1.1-7.1,4.8-18.2,4.4c3.9,1.6,8.1,3.3,12.3,2.5c3.1-0.6,5.8-2.7,8.3-4.6c0.4-0.3,0.7-0.5,1.1-0.8
	c2.8-2.1,5.7-4.4,9.2-4.8c3.8-0.5,7.5,1.3,10.9,2.9c1,0.5,2,1,3,1.5c0.5,0.3,1.1,0.5,1.7,0.7l4.4-5.3
	C251.1,285.1,247.5,283.8,243.8,283z"/>
<path opacity="0.55" fill="#442020" d="M251.7,298c-0.5,0.2-0.8,0.6-1.1,1c-1.4,1.7-2.8,3.4-4.3,5c-0.4,0.5-0.9,0.9-1.5,1.2
	c-1.3,0.5-2.8-0.1-4.1-0.5c-2.6-0.9-5.8-1-7.6,1c-1,1.1-1.4,2.6-2.4,3.7c-0.9,1-2.2,1.6-3.5,2.2c-2.6,1.1-5.2,2.3-7.9,2.5
	c-5.6,0.5-11.4-2.8-16.7-0.9c3.2,0.9,6.1,2.6,8.5,4.9c0.7,0.6,1.3,1.4,2.2,1.6c0.7,0.2,1.4,0.1,2.1,0.1c1.1,0.1,2.2,0.6,3.2,0.9
	c0.1,0,0.3,0.1,0.4,0.1c6.9-4.5,29.1-8.2,29.1-8.2C249.5,310.4,252.1,301.2,251.7,298z"/>
<path opacity="0.55" fill="#442020" d="M176.7,314.7c0.1-1.7-0.5-2.5-0.5-4.2c0-0.5-0.1-1-0.4-1.4c-0.5-0.6-1.3-0.7-2-0.8
	c-1.7-0.3-2.3-0.5-4-1.2c-1.2-0.5-2.3-0.8-3.2-1.7c-0.3-0.3-0.5-0.7-0.8-0.9c-0.3-0.2-0.8-0.4-1.1-0.7c-1.3-1.2-1.7-1.5-2.9-2.6
	c-1.5-1.4-4.7-0.1-7.8-1c-3-1-4.2-4.5-4.9-7.6c-0.9-4.1-1.5-8.3-1.8-12.6c-0.1,0-0.2,0.1-0.2,0.1v28.7c0.5-1.1,1-2.2,2-3
	c1-0.8,2.6-1.1,3.6-0.3c0.4,0.3,0.6,0.7,1.1,0.9c0.7,0.2,1.3-0.4,2-0.8c1.6-1,3.9-0.4,4.9,1.2c0.2,0.4,0.4,0.8,0.7,1.1
	c0.4,0.4,1,0.5,1.5,0.6c1.6,0.5,3,1.8,3.5,3.4c1,0.2,1.9-1.3,2.9-1.1c0.3,0.1,0.6,0.3,0.8,0.5c2.1,2.2,2.5,5.5,4.3,7.8
	c2,2.5,5.5,3.6,8.7,3.1C179.4,321.9,176.4,318.3,176.7,314.7z"/>
<path opacity="0.55" fill="#442020" d="M186,342.4c-3.3,0.2-6.5,0.9-9.7-0.3c-2.1-0.8-3.8-2.3-5.4-3.8c-2.9-2.6-5.9-5.3-7.8-8.7
	c-0.5-0.8-0.9-1.7-1.7-2.3c-0.1-0.1-0.3-0.2-0.4-0.2c-0.7-0.3-1.7-0.2-2.1,0.5c-1,1.7-2.6,2.6-3.5,4.6c-1.3,2.9-1.2,6.2-0.9,9.3
	c0.4,4.6,1.1,9.1,2.1,13.6c0.1,0.3,0.2,0.7,0.4,1.1c0.6-1.7,2.1-3.3,4-4.6c0.2-0.5,0.5-1,0.5-1.6c0-0.4-0.2-0.8-0.4-1.2
	c-1.6-3.1-1.8-6.8-0.6-10c0.9,1.5,1.6,3.3,1.9,5c0.1,0.5,0.2,1.1,0.5,1.4c0.7,0.9,2.1,0.5,3.2,0.5c1.9-0.1,3.5,0.9,5.3,1.7l8.6-2
	c1.3-0.3,2.6-0.8,3.8-1.5l2.2-1.3C186.1,342.5,186.1,342.5,186,342.4z"/>
<path opacity="0.55" fill="#442020" d="M194.8,322.1c-0.4-0.9-1.7-1.1-2.8-1.1c-1.3,0-2.6,0-3.8,0c-1.3,0-2.7,0-3.8,0.9
	c1.9-0.7,3.8-1.3,5.6-2c1.1-0.4,2.2-0.7,3.3-0.6c0.7,0.1,1.3,0.4,2,0.7c1.5,0.7,3,1.5,4.5,2.2c0.2,0.1,0.4,0.2,0.5,0.4
	c0.1,0.2,0.1,0.5,0.1,0.8c-0.2,1.6-0.7,3.1-1.4,4.5c1.5,0,3.4,0.3,3.7,1.8c-1.9,0-3.7,0-5.6-0.1c-0.2,0-0.4,0-0.6-0.1
	c-0.4-0.2-0.5-0.6-0.5-1c-0.1-1,0.1-2,0.5-3c0.2-0.6,0.4-1.4-0.1-1.7c-0.3-0.2-0.7,0-1-0.2C195,323.5,195.1,322.7,194.8,322.1z"/>
<path opacity="0.62" fill="#784A3B" d="M251.5,297.1c-0.3-0.7-0.5-1.5-0.8-2.2c-0.4-0.9-1.1-2-0.5-2.9c-0.8-0.4-1.7-0.6-2.5-0.3
	c1.1,5.5-2.3,11.5-8.3,11.2c-2.5-0.1-4.9-1.1-7.4-0.4c-2.2,0.6-3.9,2.3-5.7,3.7c-3,2.3-6.1,3.7-9.8,4.5c-1.5,0.3-5.4,1.3-9.1,1.7
	c0.6,0,1.3,0,1.9,0.1c2.7,0.3,5.4,0.9,8.1,1.1c1.1,0.1,2.5,0,3.9-0.1c0.1-0.1,0.3-0.2,0.5-0.1c0.1,0,0.1,0,0.2,0
	c0.5-0.1,1-0.1,1.5-0.2c0.9-0.4,1.9-1,2.5-1.3c1.7-0.9,3.7-1.7,5-3.2c0.6-1.9,2.3-3.7,4.1-4.4c3.6-1.3,6.7,1.6,10.3,0.3
	c0.6-0.5,1.2-1.1,1.8-1.8c1.1-1.3,2.5-2.6,3.5-4c0.2-0.4,0.4-0.7,0.6-1.1c0-0.1,0.1-0.1,0.1-0.2c0-0.1,0.1-0.3,0.1-0.4
	C251.6,297.3,251.5,297.2,251.5,297.1z"/>
<path opacity="0.63" fill="#784A3B" d="M189.1,319.9c-2.8,0.1-5.5-1.6-7.3-3.7c-2.3-2.8-2.1-6.2-3.8-9.2c-2-3.5-8.5-5.3-11.8-7.7
	c-2.7-2-5.3-3.4-8.2-4.9c-2,0-2.9-0.6-3.5-2c-4.1-2.9-6.2-7.3-7.3-12.2c-0.7,0.7-1.2,1.6-1,2.9c0.9,5.2,1.4,14.5,7.1,17
	c3.4,1.5,6.6-0.9,9.5,1.9c2.3,2.2,3.8,3.9,6.9,5.1c1.5,0.6,3.6,0.7,4.9,1.4c2.5,1.4,1.5,2.5,1.5,4.7c0,2.6,0.7,5,2.5,6.9
	c3.2,3.3,8,3,10.8-0.2C189.4,319.9,189.3,319.9,189.1,319.9z"/>
<path opacity="0.62" fill="#784A3B" d="M235.5,281.5c-2.8-0.6-5.4-0.8-8.2,0.4c-1,0.7-2,1.4-3.1,2.1c-0.6,0.4-1.2,0.7-1.8,1
	c-2.5,1.8-4.9,3.4-7.9,4.5c-9.7,3.6-20.2,3.3-30.3,2c8,5.5,21.2,3.4,29.6,1.1c5.5-1.6,11.2-2.9,15.6-6.7
	C231,283.7,232.9,281.3,235.5,281.5z"/>
<path opacity="0.52" fill="#AADADF" d="M124.6,260.6c-22.7,0-91.8,0-91.8,0v-3.7H141C141,256.9,127.5,260.6,124.6,260.6z"/>
</svg>
