<?xml version="1.0" encoding="utf-8"?>
<!-- Generator: Adobe Illustrator 18.1.0, SVG Export Plug-In . SVG Version: 6.00 Build 0)  -->
<!DOCTYPE svg PUBLIC "-//W3C//DTD SVG 1.1//EN" "http://www.w3.org/Graphics/SVG/1.1/DTD/svg11.dtd">
<svg version="1.1" id="Layer_1" xmlns="http://www.w3.org/2000/svg" xmlns:xlink="http://www.w3.org/1999/xlink" x="0px" y="0px"
	 viewBox="0 0 234.4 111.6" enable-background="new 0 0 234.4 111.6" xml:space="preserve">
<path fill="#784A3B" d="M0,11l12.3,19.7c0.1,0.1,0.1,0.3,0.1,0.4v0c0,3.7,1.4,7.3,3.9,10l0.6,0.7c0.1,0.1,0.1,0.2,0.2,0.3l0.1,0.2
	c1.4,3.8,4.4,6.7,8.3,7.8l12.1,3.8c0.1,0,0.2,0,0.2,0h6.6c0.4,0,0.7,0.3,0.8,0.6l1.4,6.7c0.1,0.2,0.2,0.4,0.4,0.5l11.3,6
	c0.2,0.1,0.4,0.3,0.4,0.6l1.3,7.2c0,0,0,0.1,0,0.1c0.8,3.2,2.8,6,5.6,7.8l7.1,4.7c0.1,0.1,0.2,0.2,0.3,0.3l1.6,3.3
	c1.5,3.1,4.1,5.6,7.3,6.9l31.9,12.8c0.3,0.1,0.6,0.1,0.8-0.1l10.9-8.4c0.3-0.2,0.4-0.5,0.3-0.9l-1.6-5.9c0-0.1,0-0.3,0-0.4
	c1-3.8,7.2-7.2,10.9-8.1c0,0,0.1,0,0.1,0l11.9-2.8c1.4-0.3,2.8-0.9,4-1.6l17.5-10.3c0.6-0.4,1.3-0.6,2-0.8l4.2-1.1
	c3-0.8,5.6-2.8,7.3-5.4l2.4-3.9c2.9-4.8,27.1-9.1,30.5-9.7c0.3,0,0.5-0.2,0.6-0.4c1.4-2.8,4.1-12.4,3.2-14.7l-1.7-4.4
	c-0.1-0.3-0.1-0.6,0.1-0.8l15.9-19.3c0.4-0.5,0.1-1.3-0.6-1.3L1.7,11C1,11,0.9,10.9,0,11z"/>
<path fill="#5B362C" d="M124.3,95.9c0.9-3.9,7.2-7.4,11-8.3c0,0,0.1,0,0.1,0l12-2.8c1.3-0.3,2.6-0.8,3.8-1.5l17.7-10.5
	c0.6-0.3,1.1-0.6,1.8-0.7l4.7-1.2c2.8-0.8,5.3-2.6,6.8-5.1l2.6-4.2c3.1-5.1,30.8-9.8,30.8-9.8c1.4-2.2,4.3-12.6,3.4-15l-1.8-4.8
	l17.3-21h-120v100.7l11.7-9L124.3,95.9z"/>
<rect x="0" y="0" fill="#8FBB30" width="234.3" height="11"/>
<circle fill="#A17B70" cx="92.1" cy="19.2" r="3"/>
<circle fill="#A17B70" cx="71.4" cy="22.2" r="3"/>
<circle fill="#A17B70" cx="53.2" cy="22.2" r="3"/>
<circle fill="#A17B70" cx="42.4" cy="32.4" r="2.1"/>
<circle fill="#A17B70" cx="61.5" cy="34.5" r="2.1"/>
<circle fill="#A17B70" cx="79.2" cy="46.6" r="2.1"/>
<circle fill="#A17B70" cx="50.2" cy="43.4" r="1"/>
<circle fill="#A17B70" cx="64.7" cy="52.9" r="1"/>
<circle fill="#A17B70" cx="26" cy="34.5" r="1"/>
<circle fill="#A17B70" cx="74.4" cy="70.6" r="1"/>
<circle fill="#A17B70" cx="89.1" cy="56.6" r="1"/>
<circle fill="#A17B70" cx="102.1" cy="48.7" r="1"/>
<circle fill="#A17B70" cx="15.5" cy="20.2" r="1"/>
<circle fill="#A17B70" cx="97.2" cy="34.5" r="2.1"/>
<circle fill="#A17B70" cx="81.3" cy="32.4" r="2.1"/>
<circle fill="#A17B70" cx="106.2" cy="23.2" r="2.1"/>
<circle fill="#A17B70" cx="33.8" cy="19.2" r="3"/>
<path opacity="0.55" fill="#442020" d="M211.1,22.3c-1.7-0.4-6.8-1.9-8.5-1.7c-4.3,0.5-4.2,3.5-7.3,6.5c-0.5,0.5-2.4,1.3-3,1.7
	c-0.9,0.5-2,0.7-3.1,0.9c-6.5,1.1-7.1,4.8-18.2,4.4c3.9,1.6,8.1,3.3,12.3,2.5c3.1-0.6,5.8-2.7,8.3-4.6c0.4-0.3,0.7-0.5,1.1-0.8
	c2.8-2.1,5.7-4.4,9.2-4.8c3.8-0.5,7.5,1.3,10.9,2.9c1,0.5,2,1,3,1.5c0.5,0.3,1.1,0.5,1.7,0.7l4.4-5.3
	C218.4,24.4,214.8,23.1,211.1,22.3z"/>
<path opacity="0.55" fill="#442020" d="M219,37.3c-0.5,0.2-0.8,0.6-1.1,1c-1.4,1.7-2.8,3.4-4.3,5c-0.4,0.5-0.9,0.9-1.5,1.2
	c-1.3,0.5-2.8-0.1-4.1-0.5c-2.6-0.9-5.8-1-7.6,1c-1,1.1-1.4,2.6-2.4,3.7c-0.9,1-2.2,1.6-3.5,2.2c-2.6,1.1-5.2,2.3-7.9,2.5
	c-5.6,0.5-11.4-2.8-16.7-0.9c3.2,0.9,6.1,2.6,8.5,4.9c0.7,0.6,1.3,1.4,2.2,1.6c0.7,0.2,1.4,0.1,2.1,0.1c1.1,0.1,2.2,0.6,3.2,0.9
	c0.1,0,0.3,0.1,0.4,0.1c6.9-4.5,29.1-8.2,29.1-8.2C216.8,49.7,219.4,40.5,219,37.3z"/>
<path opacity="0.55" fill="#442020" d="M144,54c0.1-1.7-0.5-2.5-0.5-4.2c0-0.5-0.1-1-0.4-1.4c-0.5-0.6-1.3-0.7-2-0.8
	c-1.7-0.3-2.3-0.5-4-1.2c-1.2-0.5-2.3-0.8-3.2-1.7c-0.3-0.3-0.5-0.7-0.8-0.9c-0.3-0.2-0.8-0.4-1.1-0.7c-1.3-1.2-1.7-1.5-2.9-2.6
	c-1.5-1.4-4.7-0.1-7.8-1c-3-1-4.2-4.5-4.9-7.6c-0.9-4.1-1.5-8.3-1.8-12.6c-0.1,0-0.2,0.1-0.2,0.1v28.7c0.5-1.1,1-2.2,2-3
	c1-0.8,2.6-1.1,3.6-0.3c0.4,0.3,0.6,0.7,1.1,0.9c0.7,0.2,1.3-0.4,2-0.8c1.6-1,3.9-0.4,4.9,1.2c0.2,0.4,0.4,0.8,0.7,1.1
	c0.4,0.4,1,0.5,1.5,0.6c1.6,0.5,3,1.8,3.5,3.4c1,0.2,1.9-1.3,2.9-1.1c0.3,0.1,0.6,0.3,0.8,0.5c2.1,2.2,2.5,5.5,4.3,7.8
	c2,2.5,5.5,3.6,8.7,3.1C146.7,61.2,143.7,57.6,144,54z"/>
<path opacity="0.55" fill="#442020" d="M153.3,81.7c-3.3,0.2-6.5,0.9-9.7-0.3c-2.1-0.8-3.8-2.3-5.4-3.8c-2.9-2.6-5.9-5.3-7.8-8.7
	c-0.5-0.8-0.9-1.7-1.7-2.3c-0.1-0.1-0.3-0.2-0.4-0.2c-0.7-0.3-1.7-0.2-2.1,0.5c-1,1.7-2.6,2.6-3.5,4.6c-1.3,2.9-1.2,6.2-0.9,9.3
	c0.4,4.6,1.1,9.1,2.1,13.6c0.1,0.3,0.2,0.7,0.4,1.1c0.6-1.7,2.1-3.3,4-4.6c0.2-0.5,0.5-1,0.5-1.6c0-0.4-0.2-0.8-0.4-1.2
	c-1.6-3.1-1.8-6.8-0.6-10c0.9,1.5,1.6,3.3,1.9,5c0.1,0.5,0.2,1.1,0.5,1.4c0.7,0.9,2.1,0.5,3.2,0.5c1.9-0.1,3.5,0.9,5.3,1.7l8.6-2
	c1.3-0.3,2.6-0.8,3.8-1.5l2.2-1.3C153.3,81.8,153.3,81.8,153.3,81.7z"/>
<path opacity="0.55" fill="#442020" d="M162.1,61.4c-0.4-0.9-1.7-1.1-2.8-1.1c-1.3,0-2.6,0-3.8,0c-1.3,0-2.7,0-3.8,0.9
	c1.9-0.7,3.8-1.3,5.6-2c1.1-0.4,2.2-0.7,3.3-0.6c0.7,0.1,1.3,0.4,2,0.7c1.5,0.7,3,1.5,4.5,2.2c0.2,0.1,0.4,0.2,0.5,0.4
	c0.1,0.2,0.1,0.5,0.1,0.8c-0.2,1.6-0.7,3.1-1.4,4.5c1.5,0,3.4,0.3,3.7,1.8c-1.9,0-3.7,0-5.6-0.1c-0.2,0-0.4,0-0.6-0.1
	c-0.4-0.2-0.5-0.6-0.5-1c-0.1-1,0.1-2,0.5-3c0.2-0.6,0.4-1.4-0.1-1.7c-0.3-0.2-0.7,0-1-0.2C162.3,62.8,162.4,62,162.1,61.4z"/>
<path opacity="0.62" fill="#784A3B" d="M218.8,36.4c-0.3-0.7-0.5-1.5-0.8-2.2c-0.4-0.9-1.1-2-0.5-2.9c-0.8-0.4-1.7-0.6-2.5-0.3
	c1.1,5.5-2.3,11.5-8.3,11.2c-2.5-0.1-4.9-1.1-7.4-0.4c-2.2,0.6-3.9,2.3-5.7,3.7c-3,2.3-6.1,3.7-9.8,4.5c-1.5,0.3-5.4,1.3-9.1,1.7
	c0.6,0,1.3,0,1.9,0.1c2.7,0.3,5.4,0.9,8.1,1.1c1.1,0.1,2.5,0,3.9-0.1c0.1-0.1,0.3-0.2,0.5-0.1c0.1,0,0.1,0,0.2,0
	c0.5-0.1,1-0.1,1.5-0.2c0.9-0.4,1.9-1,2.5-1.3c1.7-0.9,3.7-1.7,5-3.2c0.6-1.9,2.3-3.7,4.1-4.4c3.6-1.3,6.7,1.6,10.3,0.3
	c0.6-0.5,1.2-1.1,1.8-1.8c1.1-1.3,2.5-2.6,3.5-4c0.2-0.4,0.4-0.7,0.6-1.1c0-0.1,0.1-0.1,0.1-0.2c0-0.1,0.1-0.3,0.1-0.4
	C218.9,36.6,218.8,36.5,218.8,36.4z"/>
<path opacity="0.63" fill="#784A3B" d="M156.4,59.2c-2.8,0.1-5.5-1.6-7.3-3.7c-2.3-2.8-2.1-6.2-3.8-9.2c-2-3.5-8.5-5.3-11.8-7.7
	c-2.7-2-5.3-3.4-8.2-4.9c-2,0-2.9-0.6-3.5-2c-4.1-2.9-6.2-7.3-7.3-12.2c-0.7,0.7-1.2,1.6-1,2.9c0.9,5.2,1.4,14.5,7.1,17
	c3.4,1.5,6.6-0.9,9.5,1.9c2.3,2.2,3.8,3.9,6.9,5.1c1.5,0.6,3.6,0.7,4.9,1.4c2.5,1.4,1.5,2.5,1.5,4.7c0,2.6,0.7,5,2.5,6.9
	c3.2,3.3,8,3,10.8-0.2C156.7,59.2,156.6,59.2,156.4,59.2z"/>
<path opacity="0.62" fill="#784A3B" d="M202.8,20.8c-2.8-0.6-5.4-0.8-8.2,0.4c-1,0.7-2,1.4-3.1,2.1c-0.6,0.4-1.2,0.7-1.8,1
	c-2.5,1.8-4.9,3.4-7.9,4.5c-9.7,3.6-20.2,3.3-30.3,2c8,5.5,21.2,3.4,29.6,1.1c5.5-1.6,11.2-2.9,15.6-6.7
	C198.3,23,200.2,20.6,202.8,20.8z"/>
</svg>
