<?xml version="1.0" encoding="utf-8"?>
<!-- Generator: Adobe Illustrator 18.1.0, SVG Export Plug-In . SVG Version: 6.00 Build 0)  -->
<!DOCTYPE svg PUBLIC "-//W3C//DTD SVG 1.1//EN" "http://www.w3.org/Graphics/SVG/1.1/DTD/svg11.dtd">
<svg version="1.1" id="Layer_1" xmlns="http://www.w3.org/2000/svg" xmlns:xlink="http://www.w3.org/1999/xlink" x="0px" y="0px"
	 viewBox="0 0 800 600" enable-background="new 0 0 800 600" xml:space="preserve">
<path fill="#784A3B" d="M166.6,296.6l22.9,37.1c0.2,0.3,0.2,0.6,0.2,0.9v0c0,7.4,2.8,14.6,7.9,20l1.2,1.3c0.1,0.2,0.3,0.3,0.3,0.5
	l0.2,0.4c2.8,7.5,8.9,13.3,16.5,15.7l24.3,7.5c0.2,0,0.3,0.1,0.5,0.1h13.1c0.8,0,1.4,0.5,1.6,1.3l2.9,13.3c0.1,0.5,0.4,0.9,0.8,1.1
	l22.7,11.9c0.4,0.2,0.8,0.7,0.8,1.2l2.5,14.4c0,0.1,0,0.1,0,0.2c1.7,6.4,5.7,12,11.2,15.6l14.3,9.4c0.2,0.2,0.4,0.4,0.6,0.7l3.1,6.5
	c3,6.3,8.2,11.2,14.7,13.7l63.8,25.6c0.5,0.2,1.1,0.1,1.6-0.2l21.7-16.8c0.5-0.4,0.7-1.1,0.6-1.7l-3.2-11.9c-0.1-0.3-0.1-0.6,0-0.9
	c2.1-7.6,14.3-14.4,21.9-16.2c0.1,0,0.1,0,0.2,0l23.8-5.6c2.8-0.7,5.5-1.8,8-3.2l35-20.7c1.2-0.7,2.6-1.3,3.9-1.6l8.5-2.3
	c6.1-1.6,11.3-5.5,14.6-10.9l4.8-7.8c5.8-9.5,54.3-18.2,60.9-19.4c0.5-0.1,0.9-0.4,1.2-0.9c2.9-5.6,8.2-24.7,6.4-29.3l-3.4-8.7
	c-0.2-0.5-0.1-1.2,0.3-1.6l31.9-38.6c0.9-1.1,0.1-2.7-1.3-2.7H168C166.7,294.1,166,295.5,166.6,296.6z"/>
<path fill="#5B362C" d="M413.5,464.1c1.7-7.7,14.3-14.8,22-16.7c0.1,0,0.1,0,0.2,0l24.1-5.7c2.7-0.6,5.2-1.7,7.6-3.1l35.4-20.9
	c1.1-0.7,2.3-1.1,3.5-1.5l9.3-2.5c5.7-1.5,10.5-5.1,13.6-10.1l5.1-8.4c6.2-10.2,61.7-19.5,61.7-19.5c2.7-4.4,8.7-25.2,6.8-30.1
	l-3.7-9.6l34.7-42h-240v201.3l23.3-18L413.5,464.1z"/>
<rect x="165.1" y="272.1" fill="#B9E5FB" width="468.7" height="22"/>
<g>
	<g>
		<path fill="none" stroke="#69C9BD" stroke-miterlimit="10" d="M488.6,260.8"/>
	</g>
</g>
<g>
	<g>
		<path fill="none" stroke="#69C9BD" stroke-miterlimit="10" d="M491.3,266.1"/>
	</g>
</g>
</svg>
