<?xml version="1.0" encoding="utf-8"?>
<!-- Generator: Adobe Illustrator 18.1.0, SVG Export Plug-In . SVG Version: 6.00 Build 0)  -->
<!DOCTYPE svg PUBLIC "-//W3C//DTD SVG 1.1//EN" "http://www.w3.org/Graphics/SVG/1.1/DTD/svg11.dtd">
<svg version="1.1" id="Layer_1" xmlns="http://www.w3.org/2000/svg" xmlns:xlink="http://www.w3.org/1999/xlink" x="0px" y="0px"
	 viewBox="38.7 215.3 646.4 136.8" enable-background="new 38.7 215.3 646.4 136.8" xml:space="preserve">
<path fill="#74AB3D" d="M38.7,352.2v-3.6h2.5L52.8,333c11.7-15.9,28.8-26.9,48.1-30.9l0,0c13-2.8,24.8-8.8,34.6-17.7l42.3-38.6
	c20.6-18.8,46.6-29.1,73.2-30.3c20.3-1,40.8,3.4,59.6,13.2l234.7,123.4L38.7,352.2L38.7,352.2z"/>
<path fill="#529E43" d="M310.7,228.7c-18.8-9.8-39.3-14.2-59.4-13.2l0,0v136.7h294.2L310.7,228.7z"/>
<path fill="#529E43" d="M188.9,329.7L188.9,329.7c-45.4-52.5,13.5-101,13.5-101c-17.1,8.4-58.9,48.4-58.9,48.4s-10.9,10.6-42.6,25.1
	c0,0,46.2-12.8,90.6,30.6L188.9,329.7z"/>
<path fill="#279646" d="M284.5,348.7c0,0,63.2-13,63.2-100.5c0,0,174.7,92.4,197.8,104L284.5,348.7z"/>
<g>
	<g>
		<path fill="none" stroke="#69C9BD" stroke-miterlimit="10" d="M484.9,336.6"/>
	</g>
</g>
<g>
	<g>
		<path fill="none" stroke="#69C9BD" stroke-miterlimit="10" d="M488.6,343.9"/>
	</g>
</g>
<path fill="#CCCD3C" d="M685.1,352.2c0,0-34.9-33.8-68-53.4c-49.2-29.1-99.3-39-167.3-1.8c-77.2,42.3-157.8,55.2-157.8,55.2H685.1z"
	/>
<path fill="#CAC12C" d="M545.4,273.3v34.6V352h139.7c0,0-34.9-33.8-68-53.4C594.1,285.1,570.7,275.6,545.4,273.3z"/>
<g>
	<rect x="521.2" y="271.1" fill="#784A3B" width="6.5" height="33.9"/>
	<path fill="#8FBB30" d="M542.4,249.3c0.7-1.4,1.1-2.9,1.1-4.4c0-5.2-4.1-9.4-9.4-9.4c-0.1,0-0.3,0-0.3,0c0.1-0.7,0.3-1.5,0.3-2.3
		c0-5.2-4.3-9.4-9.4-9.4s-9.4,4.3-9.4,9.4l0,0l0,0c-5.2,0-9.4,4.1-9.4,9.4c0,2.1,0.7,3.9,1.8,5.4c-0.6-0.1-1.1-0.1-1.8-0.1
		c-7,0-12.7,5.7-12.7,12.7c0,7,5.7,12.7,12.7,12.7c2.1,0,4.1-0.6,5.9-1.5c1.7,5.1,6.3,8.8,12,8.8c5.2,0,9.7-3.2,11.6-7.6
		c1.9,1.1,4,1.8,6.3,1.8c7,0,12.7-5.7,12.7-12.7C554.4,255.1,549,249.5,542.4,249.3z M525,242.5c0,0.1-0.1,0.3-0.1,0.6
		c-0.1,0-0.1,0-0.3,0c0-0.1,0-0.3,0-0.4l0,0l0,0C524.7,242.5,524.9,242.5,525,242.5z"/>
	<path fill="#74AB3D" d="M542.4,249.3c0.7-1.4,1.1-2.9,1.1-4.4c0-5.2-4.1-9.4-9.4-9.4c-0.1,0-0.3,0-0.3,0c0.1-0.7,0.3-1.5,0.3-2.3
		c0-5.2-4.3-9.4-9.4-9.4c-0.3,0-0.6,0-0.8,0v56.7c5.2,0,9.7-3.2,11.6-7.6c1.9,1.1,4,1.8,6.3,1.8c7,0,12.7-5.7,12.7-12.7
		C554.4,255.1,549,249.5,542.4,249.3z M524.9,242.9c-0.1,0-0.1,0-0.3,0c0-0.1,0-0.3,0-0.4l0,0l0,0c0.1,0,0.3,0,0.3,0
		C525,242.6,524.9,242.8,524.9,242.9z"/>
</g>
<g>
	<rect x="582.9" y="308" fill="#784A3B" width="6.5" height="33.9"/>
	<path fill="#8FBB30" d="M608.6,298.8c0-4.4-2.3-8.4-5.8-10.6c1.7-1.7,2.6-4,2.6-6.5c0-5.2-4.1-9.4-9.4-9.4c-0.1,0-0.3,0-0.3,0
		c0.1-0.7,0.3-1.5,0.3-2.3c0-5.2-4.3-9.4-9.4-9.4c-5.1,0-9.4,4.3-9.4,9.4l0,0l0,0c-5.2,0-9.4,4.1-9.4,9.4c0,2.2,0.7,4.1,1.9,5.8
		c-5.4,1.5-9.4,6.3-9.4,12.1c0,7,5.7,12.7,12.7,12.7c0.1,0,0.3,0,0.6,0c1.5,5.2,6.3,9.1,12.1,9.1c5.2,0,9.7-3.2,11.6-7.7
		C603.6,310.8,608.6,305.4,608.6,298.8z M586.8,279.5c0,0.1-0.1,0.3-0.1,0.6c-0.1,0-0.1,0-0.3,0c0-0.1,0-0.3,0-0.4l0,0l0,0
		C586.7,279.5,586.7,279.5,586.8,279.5z"/>
	<path fill="#74AB3D" d="M602.8,288.2c1.7-1.7,2.6-4,2.6-6.5c0-5.2-4.1-9.4-9.4-9.4c-0.1,0-0.3,0-0.3,0c0.1-0.7,0.3-1.5,0.3-2.3
		c0-5.2-4.3-9.4-9.4-9.4c-0.1,0-0.1,0-0.3,0v58.5c5-0.3,9.1-3.3,11-7.7c6.3-0.7,11.3-6.1,11.3-12.6
		C608.6,294.4,606.2,290.5,602.8,288.2z M586.7,280c-0.1,0-0.1,0-0.3,0c0-0.1,0-0.3,0-0.4l0,0l0,0c0.1,0,0.3,0,0.3,0
		C586.8,279.6,586.8,279.7,586.7,280z"/>
</g>
<path fill="#CAC12C" d="M545.4,308c0,0-13.7,44.1-90.5,44.1h90.5V308z"/>
<path fill="#CAC12C" d="M366.5,332.8c0,0,41-9.4,60.8,11.2c0,0,2.8,1.9,3.4-1.9c0,0-14.3-16.4-50.2-14.1L366.5,332.8z"/>
<path fill="#CAC12C" d="M431,341.9c0,0,10.8-20.6,47.9-20c0,0-28-17.9-64.5,10.1L431,341.9z"/>
</svg>
